<svg width="545" height="191" viewBox="0 0 545 191" fill="none" xmlns="http://www.w3.org/2000/svg">
<path d="M425.067 120.774H403.431L400.509 127.798C399.381 130.601 398.817 132.634 398.817 133.899C398.817 135.71 400.526 136.616 403.944 136.616H407.738V140H385.589V136.616H387.589C390.221 136.616 391.998 136.172 392.921 135.283C393.844 134.395 394.972 132.327 396.305 129.08L420.35 69.9658H423.375L448.6 136.616H455.726V140H421.888V136.616H431.065L425.067 120.774ZM404.918 117.236H423.683L414.659 93.396L404.918 117.236Z" fill="white"/>
<path d="M130.361 130.4L130.861 128.2V126.9L130.961 125.6L130.861 124.3L131.061 122.9L131.161 121.6L131.361 120.2L133.061 118.9L131.361 117.7L131.261 116H128.361L127.361 116.5L125.561 116.9L124.261 117.1L123.261 117.3L122.161 115.7L123.261 115.1L124.561 114.9L125.961 114.7L127.361 114.6L128.061 114.7L129.561 114.3H130.761L130.961 113.1L131.261 111.8L129.861 112L128.561 112.1H127.561L125.261 112.7L123.561 113L121.761 113.4L122.261 112.3L122.861 109.9L123.661 109L124.461 108L123.661 106.9L124.061 105.7L124.461 104.4L124.861 103.2L126.561 103.4L127.461 103.6L129.061 103.7L130.661 103.9L131.061 102.4L130.861 100.8L130.761 99.2L132.661 97.8L130.761 96.7L130.661 94.8L130.861 93.5L131.161 92.1L130.961 90.6L130.861 89.1L131.261 87.9L130.961 86.7L130.761 85.5L130.561 84.4L129.361 83.8L128.261 83.2L126.961 81.7L125.561 81.2L124.261 80.6L122.361 80.3L123.561 79.3L124.861 78.6L125.761 78.1L127.261 77.4L127.961 76.4L129.461 76L130.161 75.5L131.361 75.1L132.261 74.5L133.761 73.9L134.661 73.6L136.861 75.1L137.161 72.8L138.361 72.4L139.861 71.8L140.761 71.4L142.361 71.3L143.161 70.9L144.761 71L146.461 70.7L148.461 70.5L149.561 70.9L151.061 70.3H152.261L152.961 70.2L153.961 70.4H155.261L156.661 70.5L157.661 70.8L159.061 70.7H160.961L162.361 71.2L163.561 71.5H164.761L166.261 72.1L167.261 72.7L168.761 73L169.761 73.5L171.461 74.1L171.861 75.4L172.161 76.8L173.561 75.5L174.761 76.8L175.761 78.3V79.2L176.961 80.1L177.561 81.3L178.161 81.9L177.961 83.5L179.161 84.9L179.461 86.2V87.4L179.761 88.3L179.261 90.1L178.461 91.3L178.661 93L178.461 94.2V94.8L177.761 95.8L175.061 96.3L176.561 97.8L176.061 99L174.661 101L173.261 102.1L171.661 102.9L171.261 103.6L169.961 104.6L168.061 105.7L166.161 106.2L164.761 106.5L163.761 106.8L161.561 106.6L162.461 107.8L163.361 108.9L164.261 109.7L164.561 110.9L165.261 112.4L166.061 113.4L166.561 114.7L167.561 115.6V117.5L168.661 119L169.961 119.9L170.561 121.2L168.661 122.1L170.761 122.6L172.061 123.5L173.161 124.7L173.461 125.4L174.661 126.7L175.261 127.7L176.161 127.5L177.061 129.7L177.161 130.9L178.661 131.7L179.761 132.6L180.961 134.3L182.461 135.7L181.061 136.2L179.261 136.5L177.761 136.7L176.661 137.4L175.561 137.6L174.461 138L173.161 138.7L171.161 137.9L170.661 139.8L169.361 140.4L167.261 140.8L166.761 141.6L165.661 142.4L164.061 143L163.861 142L163.961 140.7V139.5L164.261 138.3L163.761 137.2L163.161 135.7L162.561 134.6L162.661 133.5L161.761 132.2L163.961 130.4L161.661 129.7L160.961 129.1L161.061 127.2L160.461 125.8L159.561 124.5L159.061 123.1L158.861 121.9L160.461 120.1L158.561 120.2L157.761 119.2L157.261 117.4L156.561 116.5L156.461 115.2L156.061 113.7L154.561 114L153.261 114.2L151.561 114.4L149.961 114.5L148.561 115.1L148.461 117.1L148.161 118.6V120.1L148.261 121.6V123.7L147.861 125.5V127.1L148.061 128.4L148.261 129.6L149.861 131.8L150.761 132.8L151.661 133.5L152.661 134.2L153.361 135.3L153.961 136L155.061 137.1L156.161 138.1L157.361 139.2L156.561 140.5L155.861 141.9L155.161 143.2L153.261 142.8L151.861 143L150.561 143.1L148.561 142.9L146.461 143.2L145.461 143.1L143.361 143.5L142.061 143.4L140.861 143.2H140.161L138.561 143.1L137.061 142.9L135.261 143.7L133.561 143.5L131.961 143.2L131.561 142.9L128.761 143.1H126.661L124.561 142.9L123.961 141.7L126.161 141.3L128.061 141.2L129.261 141.4L130.461 141.5L130.961 141.6L132.661 141.5L133.961 141.6H136.461L137.661 141.5L138.761 141.6L139.961 141.7L141.261 141.6L142.661 141.4L144.661 141.7L146.461 141.6L147.561 141.8L148.661 141.6L149.861 141.3L150.761 141.9L152.461 141.7L154.161 141.4L154.661 140.3L155.261 139.1L153.061 137.5L152.161 135.6L150.561 134.6L149.461 133.6L148.461 132.5L147.361 131.5L146.361 130.4L146.461 128.5L146.661 127.2L146.861 125.8L146.461 124.2L146.261 122.5L146.461 120.9V117L146.761 115L146.461 113.4L147.861 113.2L149.361 112.9L151.261 112.8L152.161 112.5L154.161 112.1L155.561 111.9L154.761 110.9L153.961 109.8L152.161 110.2L151.761 110L148.961 110.4L148.261 110.7L146.561 111L145.461 111.2L143.561 111.4L143.761 112.6L143.961 113.7L143.661 115L143.861 116.6L143.661 118.7L143.761 119.5V123.2L141.861 124.5L143.961 125.8L143.761 127L143.561 128.1V130.4L145.261 131.7L146.961 133.1L147.461 134.3L148.561 135.1L149.761 135.9L150.861 136.7L151.861 138L152.861 139L151.461 139.1H150.061L149.761 138.7L148.461 138.8L147.261 139L145.961 139.1L144.161 138.9L143.361 139.5L142.061 139.3L140.661 139.2L139.361 139H135.661L134.361 137.4L132.661 138.9L130.261 139.1L128.661 139L127.061 139.3L123.161 139L121.961 139.4L123.061 138.2L124.261 136.9L125.261 136.2L127.061 134.2L128.161 133.5L128.861 132.5L129.561 131.4L130.361 130.4ZM143.661 80.3L143.861 82L143.261 84.1L143.561 85.8L143.861 87.4L141.561 88.5L143.861 89.5L143.661 92.3L143.761 94.4L143.661 95.6V96.7L144.061 97.8L143.961 99.9L143.361 101.3L143.561 103.4L145.061 103.3L146.661 103.1V101.3L147.061 98.5L146.761 97.3L146.461 96V95L145.961 93L146.261 91.4L146.661 89.8L146.261 87.8L145.961 86L146.161 84.7L146.461 83.3L146.761 81.7L147.961 81.5L149.361 81L150.061 80.6L151.161 80.4L152.861 80.2H154.761L154.461 80.1H155.961L157.361 80.2L158.361 80.6L160.061 81.4L161.361 82.1L161.161 83.5L160.461 82.9L159.061 82.3L157.461 82.1L156.261 82.2L154.661 81.9L153.061 82.2L151.761 82L150.161 82.8L149.361 83L147.661 83.4L148.561 85.5L148.161 87.1V89.6L148.261 90.7L148.161 92.3V93.8L148.761 94.3L148.461 96.1L148.161 97.8L147.761 98.5L148.661 100.6L148.561 101.8L148.461 102.9L149.561 102.8L151.761 102.3L153.661 101.5L154.961 101.3L156.161 100.6L156.661 100.3L158.561 99.4L159.961 98.4V98.5L161.161 97.6L162.161 97.3L162.861 95.3L163.361 94.3L165.361 93.3L164.361 91.4L164.461 90L164.561 89.1L164.761 87L164.261 85.7L163.861 83.9L163.261 82.3L162.761 82.1L162.161 80.5L160.961 79.7L160.461 79L157.961 78.3L156.961 77.8L155.361 77.7L154.261 77.4L152.461 77.6L151.761 78H149.361L147.461 78.6L145.561 79.4L143.661 80.3ZM168.961 110L169.661 111.5L170.361 112.7L171.661 115.3L172.861 116.3L173.261 118L173.761 119.2L175.061 120.7L175.861 121.9L176.561 122.9L177.561 123.9L178.061 124.9L179.161 126L180.461 127.6L181.161 129L182.761 130.3L183.761 130.7L184.561 131.9L185.361 133.2L186.061 134.4L187.061 135.3L188.561 136.4L189.261 137.3V138.5L188.361 138.7L187.161 138.9L185.761 139.4L184.961 139.6L183.061 139.9L181.161 140.6L179.961 141.2L177.961 142.1L176.861 142.4L175.561 142.7L174.161 143.1L173.361 143.7L172.661 144.1L171.561 144.5L169.561 145.5L167.661 144.9L169.261 143.6L170.161 143.3L171.561 142.5L173.561 141.8L173.661 141.4L175.461 141L176.361 140.3L177.561 140L179.161 139.5L180.261 139.1L182.361 138.9L183.661 138.3L184.461 138.2L185.561 138L186.761 137.7L185.961 136.7L185.161 135.6L183.861 134L182.861 133.3L181.961 132.7L181.161 131.7L180.361 130.6L179.861 129.3L178.561 128.3L177.561 126.9L175.961 125.5L175.261 124L174.461 123.7L173.861 121.9L172.861 120.7L172.361 119.7L171.261 118.2L170.261 116.7L170.461 115.3L169.361 113.9L168.061 112.8L167.961 111.1L167.361 110.1L166.461 109L167.461 108.9L168.761 108.5L170.061 107.9L171.161 107L172.961 106.2L174.761 105L176.461 104.1L177.561 102.7L178.361 101.7L178.561 100.5L180.361 98.7L180.961 96.8L181.561 95.8L181.661 94L182.461 92.9L182.161 90.7V89L181.961 87.8V86.1L181.261 84.4L180.861 83.9L180.461 82L179.561 80.2L178.561 79L179.261 79.1L178.061 78.2L177.161 77.1L176.261 76.3L175.461 75.8L176.061 75.4L177.961 76.3L178.861 77.4L180.061 78.3L180.661 79.1L181.061 80.4L181.661 81.6L182.661 82.4L183.061 83.7L183.161 85.1L183.661 86.5L183.461 87.5L182.961 89.1L183.761 90.9L183.961 92.4L183.161 94.1L183.261 95.4L182.461 96.1L182.061 97.5V98.8L180.761 100.4L179.961 101.7L179.861 102.7L178.761 103.6L178.561 104.7L177.161 105.5L175.761 106.2L174.561 107L173.561 107.5L171.861 108.7L171.661 108.8L170.461 109.3L168.961 110Z" fill="white"/>
<path d="M426.067 120.774H404.431L401.509 127.798C400.381 130.601 399.817 132.634 399.817 133.899C399.817 135.71 401.526 136.616 404.944 136.616H408.738V140H386.589V136.616H388.589C391.221 136.616 392.998 136.172 393.921 135.283C394.844 134.395 395.972 132.327 397.305 129.08L421.35 69.9658H424.375L449.6 136.616H456.726V140H422.888V136.616H432.065L426.067 120.774ZM405.918 117.236H424.683L415.659 93.396L405.918 117.236Z" fill="white"/>
<line x1="401.073" y1="137.625" x2="418.073" y2="95.6248" stroke="white" stroke-width="2"/>
<rect x="406.437" y="115.98" width="2.12137" height="5.86684" transform="rotate(22.2442 406.437 115.98)" fill="black"/>
<rect x="212.592" y="117.635" width="2.65849" height="5.86684" transform="rotate(22.2442 212.592 117.635)" fill="black"/>
<path d="M279.104 104.96C280.254 104.96 296.446 87.986 296.446 84.904C296.446 82.328 293.318 81.546 293.318 78.832C293.318 77.406 294.468 76.21 296.952 76.21C298.884 76.21 302.334 76.44 304.45 76.44C306.428 76.44 310.568 76.256 312.5 76.256C315.444 76.256 317.192 76.578 317.192 78.97C317.192 81.684 313.374 82.512 309.694 85.318C305.784 88.354 299.436 94.15 291.662 102.798C291.432 103.074 291.156 103.35 291.156 103.672C291.156 103.856 291.248 104.086 291.708 104.224C301.23 107.398 306.612 114.804 311.626 125.154C313.19 128.65 314.846 131.272 317.146 133.158C319.032 134.63 320.182 134.86 320.182 136.654C320.182 138.678 318.756 139.23 317.284 139.23C315.352 139.23 310.2 139 307.992 139C304.174 139 300.586 139.23 299.206 139.23C296.952 139.23 295.526 138.034 295.526 136.516C295.526 134.906 296.584 134.308 296.584 132.1C296.584 126.258 289.684 113.93 281.496 113.93C279.748 113.93 278.69 115.08 278.69 117.794V124.97C278.69 128.742 279.932 130.674 281.496 132.33C282.922 133.94 284.854 134.86 284.854 136.7C284.854 138.356 283.52 139.23 281.266 139.23C278.092 139.23 274.55 139 271.56 139C268.432 139 264.982 139.23 262.268 139.23C259.738 139.23 258.634 138.08 258.634 136.7C258.634 133.572 263.05 133.664 263.786 128.42C264.154 125.89 264.292 115.08 264.292 106.294C264.292 100.084 264.292 91.298 264.154 89.228C263.556 82.006 259.002 82.42 259.002 78.924C259.002 77.406 259.738 76.21 262.314 76.21C265.12 76.21 268.616 76.44 271.606 76.44C274.688 76.44 278.184 76.21 280.806 76.21C283.244 76.21 284.072 77.406 284.072 78.924C284.072 81.546 280.852 82.328 279.932 85.594C279.288 87.066 278.506 90.976 278.506 95.76C278.506 103.12 278.69 104.96 279.104 104.96Z" fill="white"/>
<line x1="260.25" y1="79" x2="260.25" y2="139" stroke="white" stroke-width="2.5"/>
<path d="M15.5654 134.205V88.4727L1.01374 76.4866C4.01796 76.4551 2.1502 76.4237 5.52995 76.3922C8.9097 76.3607 12.3051 76.345 15.7161 76.345C19.1585 76.3135 22.5382 76.2821 25.8554 76.2506C29.1725 76.2192 33.2669 76.2034 36.1147 76.2034C38.9624 76.172 32.3897 76.1562 34.6116 76.1562C36.8335 76.1562 38.5859 76.1562 39.869 76.1562C43.0297 76.1562 46.2217 76.2664 49.4449 76.4866C52.6682 76.6753 51.7185 77.0528 54.6915 77.6191C57.6644 78.1854 58.4256 78.9719 61.023 79.9786C63.6204 80.9538 64.8617 82.2437 66.7706 83.8481C68.6795 85.4526 70.1816 87.3873 71.2769 89.6524C72.4035 91.9175 72.9668 94.5916 72.9668 97.6746C72.9668 101.009 72.4817 103.919 71.5116 106.405C70.5728 108.859 69.1959 110.966 67.3808 112.728C65.5658 114.458 63.3596 115.874 60.7622 116.975C58.196 118.076 57.294 118.941 54.0081 119.571C50.7222 120.2 51.1712 120.64 47.2595 120.892C43.379 121.112 40.2445 121.222 35.8321 121.222C34.6429 121.222 33.2973 121.206 31.7951 121.175C30.293 121.144 34.8157 121.096 33.2197 121.033V134.205L48.4646 144.156H0.966797L15.5654 134.205ZM33.0625 110.699C36.943 110.699 43.2178 110.526 45.8152 110.18C48.4126 109.802 50.4936 109.142 52.0583 108.198C53.623 107.254 54.7339 105.964 55.3911 104.328C56.0483 102.692 56.3769 100.6 56.3769 98.0522C56.3769 95.5039 55.9388 93.459 55.0625 91.9175C54.1863 90.376 52.9189 89.1963 51.2603 88.3783C49.6017 87.5289 47.5676 86.9784 45.158 86.7267C42.7797 86.475 37.0369 86.3492 34.0014 86.3492H33.2197V110.699H33.0625Z" fill="white"/>
<rect x="80.3496" y="118.951" width="1.0931" height="5.8976" transform="rotate(21.9788 80.3496 118.951)" fill="black"/>
<line x1="401.073" y1="137.625" x2="418.073" y2="95.6248" stroke="white" stroke-width="2"/>
<rect x="406.437" y="115.98" width="2.12137" height="5.86684" transform="rotate(22.2442 406.437 115.98)" fill="black"/>
<path d="M15.5654 134.205V88.4727L1.01374 76.4866C4.01796 76.4551 2.1502 76.4237 5.52995 76.3922C8.9097 76.3607 12.3051 76.345 15.7161 76.345C19.1585 76.3135 22.5382 76.2821 25.8554 76.2506C29.1725 76.2192 33.2669 76.2034 36.1147 76.2034C38.9624 76.172 32.3897 76.1562 34.6116 76.1562C36.8335 76.1562 38.5859 76.1562 39.869 76.1562C43.0297 76.1562 46.2217 76.2664 49.4449 76.4866C52.6682 76.6753 51.7185 77.0528 54.6915 77.6191C57.6644 78.1854 58.4256 78.9719 61.023 79.9786C63.6204 80.9538 64.8617 82.2437 66.7706 83.8481C68.6795 85.4526 70.1816 87.3873 71.2769 89.6524C72.4035 91.9175 72.9668 94.5916 72.9668 97.6746C72.9668 101.009 72.4817 103.919 71.5116 106.405C70.5728 108.859 69.1959 110.966 67.3808 112.728C65.5658 114.458 63.3596 115.874 60.7622 116.975C58.196 118.076 57.294 118.941 54.0081 119.571C50.7222 120.2 51.1712 120.64 47.2595 120.892C43.379 121.112 40.2445 121.222 35.8321 121.222C34.6429 121.222 33.2973 121.206 31.7951 121.175C30.293 121.144 34.8157 121.096 33.2197 121.033V134.205L48.4646 144.156H0.966797L15.5654 134.205ZM33.0625 110.699C36.943 110.699 43.2178 110.526 45.8152 110.18C48.4126 109.802 50.4936 109.142 52.0583 108.198C53.623 107.254 54.7339 105.964 55.3911 104.328C56.0483 102.692 56.3769 100.6 56.3769 98.0522C56.3769 95.5039 55.9388 93.459 55.0625 91.9175C54.1863 90.376 52.9189 89.1963 51.2603 88.3783C49.6017 87.5289 47.5676 86.9784 45.158 86.7267C42.7797 86.475 37.0369 86.3492 34.0014 86.3492H33.2197V110.699H33.0625Z" fill="white"/>
<path d="M156.6 161.3C149.333 164.967 141.967 165.567 134.5 163.1C126.567 160.567 119.733 155.167 114 146.9C110.933 142.5 108.3 137.4 106.1 131.6L102.9 123.1H79.3L74 135.7C73.6667 136.567 73.5 137.267 73.5 137.8C73.5 138.333 73.6 138.933 73.8 139.6C74.0667 140.2 74.5667 140.767 75.3 141.3C76.1 141.767 76.9667 142 77.9 142H78.7V143H57.3V142H58.2C59.7333 142 61.2333 141.567 62.7 140.7C64.2333 139.767 65.5 138.4 66.5 136.6L88.8 85.7C86.2 79.8333 83.4333 75.8 80.5 73.6C78.0333 71.7333 75.6667 70.8 73.4 70.8C71.2 70.8 69.1333 71.1333 67.2 71.8L67 70.8C71.8 68.3333 76.4 67.1 80.8 67.1C86.2667 67.1 91.1667 69.2333 95.5 73.5C99.7667 77.7 103.533 83.7667 106.8 91.7L121.3 127.5C126.767 141.033 132.367 150.333 138.1 155.4C140.433 157.467 142.833 158.9 145.3 159.7C147.767 160.5 149.833 160.9 151.5 160.9C153.233 160.9 154.9 160.7 156.5 160.3L156.6 161.3ZM81 118.8H101.4L94.4 100.3C94.0667 99.3667 93.6 98.1 93 96.5C92.4 94.8333 92 93.6667 91.8 93L81 118.8Z" fill="white"/>
<path d="M230.724 34C232.223 38.6313 222.092 57.7407 221.078 41.9735C213.803 53.8303 208.602 52.5723 210.314 46.4901C203.29 50.5988 208.453 63.2234 211.192 66.1528L217.881 70.68C215.329 66.4048 211.412 60.7934 212.255 56.2403C215.569 58.227 217.144 59.7598 219.625 53.702C222.279 61.9157 228.188 52.6586 232.121 49.2412C231.133 52.2627 229.866 56.2547 231.03 59.7271C231.418 60.8853 233.152 61.8447 234.756 62.399C233.673 63.355 229.936 66.4688 231.578 68.7226C233.221 70.9763 234.043 69.5833 233.151 70.649C231.717 71.8805 230.768 72.8716 227.772 73.0203L231.767 74.6756C236.585 74.8473 242.041 70.7058 241.706 66.9092C239.669 67.7371 237.79 68.0841 236.517 67.5112C241.714 63.3495 242.465 57.4341 242.369 51.0792C239.313 56.04 238.105 56.4518 236.173 57.1808C239.81 52.7422 234.431 38.5816 230.724 34ZM219.625 60.5L220.078 64.3621L226.5 65.5L229 62L219.625 60.5ZM220.15 66.0218L193 137.749L205.838 138.139L206.419 133.57L210 122L217.162 98.8608L221.078 83.5L224.5 70.649L226 67L220.15 66.0218Z" fill="white"/>
<path d="M227.067 119.774H205.431L202.509 126.798C201.381 129.601 200.817 131.634 200.817 132.899C200.817 134.71 202.526 135.616 205.944 135.616H209.738V139H187.589V135.616H189.589C192.221 135.616 193.998 135.172 194.921 134.283C195.844 133.395 196.972 131.327 198.305 128.08L222.35 68.9658H225.375L250.6 135.616H257.726V139H223.888V135.616H233.065L227.067 119.774ZM206.918 116.236H225.683L216.659 92.396L206.918 116.236Z" fill="white"/>
<path d="M328.4 128.401L328.9 126.201V124.901L329 123.601L328.9 122.301L329.1 120.901L329.2 119.601L329.4 118.201L331.1 116.901L329.4 115.701L329.3 114.001H326.4L325.4 114.501L323.6 114.901L322.3 115.101L321.3 115.301L320.2 113.701L321.3 113.101L322.6 112.901L324 112.701L325.4 112.601L326.1 112.701L327.6 112.301H328.8L329 111.101L329.3 109.801L327.9 110.001L326.6 110.101H325.6L323.3 110.701L321.6 111.001L319.8 111.401L320.3 110.301L320.9 107.901L321.7 107.001L322.5 106.001L321.7 104.901L322.1 103.701L322.5 102.401L322.9 101.201L324.6 101.401L325.5 101.601L327.1 101.701L328.7 101.901L329.1 100.401L328.9 98.801L328.8 97.201L330.7 95.801L328.8 94.701L328.7 92.801L328.9 91.501L329.2 90.101L329 88.601L328.9 87.101L329.3 85.901L329 84.701L328.8 83.501L328.6 82.401L327.4 81.801L326.3 81.201L325 79.701L323.6 79.201L322.3 78.601L320.4 78.301L321.6 77.301L322.9 76.601L323.8 76.101L325.3 75.401L326 74.401L327.5 74.001L328.2 73.501L329.4 73.101L330.3 72.501L331.8 71.901L332.7 71.601L334.9 73.101L335.2 70.801L336.4 70.401L337.9 69.801L338.8 69.401L340.4 69.301L341.2 68.901L342.8 69.001L344.5 68.701L346.5 68.501L347.6 68.901L349.1 68.301H350.3L351 68.201L352 68.401H353.3L354.7 68.501L355.7 68.801L357.1 68.701H359L360.4 69.201L361.6 69.501H362.8L364.3 70.101L365.3 70.701L366.8 71.001L367.8 71.501L369.5 72.101L369.9 73.401L370.2 74.801L371.6 73.501L372.8 74.801L373.8 76.301V77.201L375 78.101L375.6 79.301L376.2 79.901L376 81.501L377.2 82.901L377.5 84.201V85.401L377.8 86.301L377.3 88.101L376.5 89.301L376.7 91.001L376.5 92.201V92.801L375.8 93.801L373.1 94.301L374.6 95.801L374.1 97.001L372.7 99.001L371.3 100.101L369.7 100.901L369.3 101.601L368 102.601L366.1 103.701L364.2 104.201L362.8 104.501L361.8 104.801L359.6 104.601L360.5 105.801L361.4 106.901L362.3 107.701L362.6 108.901L363.3 110.401L364.1 111.401L364.6 112.701L365.6 113.601V115.501L366.7 117.001L368 117.901L368.6 119.201L366.7 120.101L368.8 120.601L370.1 121.501L371.2 122.701L371.5 123.401L372.7 124.701L373.3 125.701L374.2 125.501L375.1 127.701L375.2 128.901L376.7 129.701L377.8 130.601L379 132.301L380.5 133.701L379.1 134.201L377.3 134.501L375.8 134.701L374.7 135.401L373.6 135.601L372.5 136.001L371.2 136.701L369.2 135.901L368.7 137.801L367.4 138.401L365.3 138.801L364.8 139.601L363.7 140.401L362.1 141.001L361.9 140.001L362 138.701V137.501L362.3 136.301L361.8 135.201L361.2 133.701L360.6 132.601L360.7 131.501L359.8 130.201L362 128.401L359.7 127.701L359 127.101L359.1 125.201L358.5 123.801L357.6 122.501L357.1 121.101L356.9 119.901L358.5 118.101L356.6 118.201L355.8 117.201L355.3 115.401L354.6 114.501L354.5 113.201L354.1 111.701L352.6 112.001L351.3 112.201L349.6 112.401L348 112.501L346.6 113.101L346.5 115.101L346.2 116.601V118.101L346.3 119.601V121.701L345.9 123.501V125.101L346.1 126.401L346.3 127.601L347.9 129.801L348.8 130.801L349.7 131.501L350.7 132.201L351.4 133.301L352 134.001L353.1 135.101L354.2 136.101L355.4 137.201L354.6 138.501L353.9 139.901L353.2 141.201L351.3 140.801L349.9 141.001L348.6 141.101L346.6 140.901L344.5 141.201L343.5 141.101L341.4 141.501L340.1 141.401L338.9 141.201H338.2L336.6 141.101L335.1 140.901L333.3 141.701L331.6 141.501L330 141.201L329.6 140.901L326.8 141.101H324.7L322.6 140.901L322 139.701L324.2 139.301L326.1 139.201L327.3 139.401L328.5 139.501L329 139.601L330.7 139.501L332 139.601H334.5L335.7 139.501L336.8 139.601L338 139.701L339.3 139.601L340.7 139.401L342.7 139.701L344.5 139.601L345.6 139.801L346.7 139.601L347.9 139.301L348.8 139.901L350.5 139.701L352.2 139.401L352.7 138.301L353.3 137.101L351.1 135.501L350.2 133.601L348.6 132.601L347.5 131.601L346.5 130.501L345.4 129.501L344.4 128.401L344.5 126.501L344.7 125.201L344.9 123.801L344.5 122.201L344.3 120.501L344.5 118.901V115.001L344.8 113.001L344.5 111.401L345.9 111.201L347.4 110.901L349.3 110.801L350.2 110.501L352.2 110.101L353.6 109.901L352.8 108.901L352 107.801L350.2 108.201L349.8 108.001L347 108.401L346.3 108.701L344.6 109.001L343.5 109.201L341.6 109.401L341.8 110.601L342 111.701L341.7 113.001L341.9 114.601L341.7 116.701L341.8 117.501V121.201L339.9 122.501L342 123.801L341.8 125.001L341.6 126.101V128.401L343.3 129.701L345 131.101L345.5 132.301L346.6 133.101L347.8 133.901L348.9 134.701L349.9 136.001L350.9 137.001L349.5 137.101H348.1L347.8 136.701L346.5 136.801L345.3 137.001L344 137.101L342.2 136.901L341.4 137.501L340.1 137.301L338.7 137.201L337.4 137.001H333.7L332.4 135.401L330.7 136.901L328.3 137.101L326.7 137.001L325.1 137.301L321.2 137.001L320 137.401L321.1 136.201L322.3 134.901L323.3 134.201L325.1 132.201L326.2 131.501L326.9 130.501L327.6 129.401L328.4 128.401ZM341.7 78.301L341.9 80.001L341.3 82.101L341.6 83.801L341.9 85.401L339.6 86.501L341.9 87.501L341.7 90.301L341.8 92.401L341.7 93.601V94.701L342.1 95.801L342 97.901L341.4 99.301L341.6 101.401L343.1 101.301L344.7 101.101V99.301L345.1 96.501L344.8 95.301L344.5 94.001V93.001L344 91.001L344.3 89.401L344.7 87.801L344.3 85.801L344 84.001L344.2 82.701L344.5 81.301L344.8 79.701L346 79.501L347.4 79.001L348.1 78.601L349.2 78.401L350.9 78.201H352.8L352.5 78.101H354L355.4 78.201L356.4 78.601L358.1 79.401L359.4 80.101L359.2 81.501L358.5 80.901L357.1 80.301L355.5 80.101L354.3 80.201L352.7 79.901L351.1 80.201L349.8 80.001L348.2 80.801L347.4 81.001L345.7 81.401L346.6 83.501L346.2 85.101V87.601L346.3 88.701L346.2 90.301V91.801L346.8 92.301L346.5 94.101L346.2 95.801L345.8 96.501L346.7 98.601L346.6 99.801L346.5 100.901L347.6 100.801L349.8 100.301L351.7 99.501L353 99.301L354.2 98.601L354.7 98.301L356.6 97.401L358 96.401V96.501L359.2 95.601L360.2 95.301L360.9 93.301L361.4 92.301L363.4 91.301L362.4 89.401L362.5 88.001L362.6 87.101L362.8 85.001L362.3 83.701L361.9 81.901L361.3 80.301L360.8 80.101L360.2 78.501L359 77.701L358.5 77.001L356 76.301L355 75.801L353.4 75.701L352.3 75.401L350.5 75.601L349.8 76.001H347.4L345.5 76.601L343.6 77.401L341.7 78.301ZM367 108.001L367.7 109.501L368.4 110.701L369.7 113.301L370.9 114.301L371.3 116.001L371.8 117.201L373.1 118.701L373.9 119.901L374.6 120.901L375.6 121.901L376.1 122.901L377.2 124.001L378.5 125.601L379.2 127.001L380.8 128.301L381.8 128.701L382.6 129.901L383.4 131.201L384.1 132.401L385.1 133.301L386.6 134.401L387.3 135.301V136.501L386.4 136.701L385.2 136.901L383.8 137.401L383 137.601L381.1 137.901L379.2 138.601L378 139.201L376 140.101L374.9 140.401L373.6 140.701L372.2 141.101L371.4 141.701L370.7 142.101L369.6 142.501L367.6 143.501L365.7 142.901L367.3 141.601L368.2 141.301L369.6 140.501L371.6 139.801L371.7 139.401L373.5 139.001L374.4 138.301L375.6 138.001L377.2 137.501L378.3 137.101L380.4 136.901L381.7 136.301L382.5 136.201L383.6 136.001L384.8 135.701L384 134.701L383.2 133.601L381.9 132.001L380.9 131.301L380 130.701L379.2 129.701L378.4 128.601L377.9 127.301L376.6 126.301L375.6 124.901L374 123.501L373.3 122.001L372.5 121.701L371.9 119.901L370.9 118.701L370.4 117.701L369.3 116.201L368.3 114.701L368.5 113.301L367.4 111.901L366.1 110.801L366 109.101L365.4 108.101L364.5 107.001L365.5 106.901L366.8 106.501L368.1 105.901L369.2 105.001L371 104.201L372.8 103.001L374.5 102.101L375.6 100.701L376.4 99.701L376.6 98.501L378.4 96.701L379 94.801L379.6 93.801L379.7 92.001L380.5 90.901L380.2 88.701V87.001L380 85.801V84.101L379.3 82.401L378.9 81.901L378.5 80.001L377.6 78.201L376.6 77.001L377.3 77.101L376.1 76.201L375.2 75.101L374.3 74.301L373.5 73.801L374.1 73.401L376 74.301L376.9 75.401L378.1 76.301L378.7 77.101L379.1 78.401L379.7 79.601L380.7 80.401L381.1 81.701L381.2 83.101L381.7 84.501L381.5 85.501L381 87.101L381.8 88.901L382 90.401L381.2 92.101L381.3 93.401L380.5 94.101L380.1 95.501V96.801L378.8 98.401L378 99.701L377.9 100.701L376.8 101.601L376.6 102.701L375.2 103.501L373.8 104.201L372.6 105.001L371.6 105.501L369.9 106.701L369.7 106.801L368.5 107.301L367 108.001Z" fill="white"/>
<path d="M357.02 27.1108C357.787 27.4654 358.429 27.8577 358.964 28.2732C361.413 30.1725 362 32.7085 362.709 35.6704C363.418 38.6325 364.261 42.0195 367.48 44.4137C370.526 46.678 375.463 47.9549 383.955 47.8454C382.931 53.523 381.549 64.3637 382.24 71.5507C374.137 71.6699 369.662 70.4585 367.192 68.7472L367.188 68.7456C365.046 66.944 364.281 64.6295 363.88 61.2869C363.369 57.039 363.681 51.2901 363.015 43.9839L360.747 44.1493C361.149 48.5533 361.174 52.3896 361.266 55.7691C360.618 54.5728 359.739 53.4403 358.48 52.464C355.673 50.2875 351.207 48.9943 343.651 48.923C345.829 45.9258 346.824 41.9142 346.955 37.8182C347.096 33.3998 346.258 28.8631 344.662 25.2188C350.375 25.2088 354.185 25.8933 356.684 26.9625C356.799 27.0117 356.91 27.0601 357.02 27.1108ZM342.038 22.0435C342.14 22.0879 342.236 22.1451 342.324 22.2138C342.768 22.5556 343.115 23.1906 343.149 24.1217L341.682 85.5232L339.034 84.2846L340.515 23.5306C340.61 22.1827 341.357 21.749 342.038 22.0435Z" fill="white"/>
<path d="M335.463 23.9208L339.282 18L343.486 23.9208L341.599 137H329.329L331.449 89.2625L333.458 57.0917L335.463 23.9208Z" fill="white"/>
<rect x="340.654" y="134" width="2.83146" height="3" fill="white"/>
<path d="M279.104 104.96C280.254 104.96 296.446 87.986 296.446 84.904C296.446 82.328 293.318 81.546 293.318 78.832C293.318 77.406 294.468 76.21 296.952 76.21C298.884 76.21 302.334 76.44 304.45 76.44C306.428 76.44 310.568 76.256 312.5 76.256C315.444 76.256 317.192 76.578 317.192 78.97C317.192 81.684 313.374 82.512 309.694 85.318C305.784 88.354 299.436 94.15 291.662 102.798C291.432 103.074 291.156 103.35 291.156 103.672C291.156 103.856 291.248 104.086 291.708 104.224C301.23 107.398 306.612 114.804 311.626 125.154C313.19 128.65 314.846 131.272 317.146 133.158C319.032 134.63 320.182 134.86 320.182 136.654C320.182 138.678 318.756 139.23 317.284 139.23C315.352 139.23 310.2 139 307.992 139C304.174 139 300.586 139.23 299.206 139.23C296.952 139.23 295.526 138.034 295.526 136.516C295.526 134.906 296.584 134.308 296.584 132.1C296.584 126.258 289.684 113.93 281.496 113.93C279.748 113.93 278.69 115.08 278.69 117.794V124.97C278.69 128.742 279.932 130.674 281.496 132.33C282.922 133.94 284.854 134.86 284.854 136.7C284.854 138.356 283.52 139.23 281.266 139.23C278.092 139.23 274.55 139 271.56 139C268.432 139 264.982 139.23 262.268 139.23C259.738 139.23 258.634 138.08 258.634 136.7C258.634 133.572 263.05 133.664 263.786 128.42C264.154 125.89 264.292 115.08 264.292 106.294C264.292 100.084 264.292 91.298 264.154 89.228C263.556 82.006 259.002 82.42 259.002 78.924C259.002 77.406 259.738 76.21 262.314 76.21C265.12 76.21 268.616 76.44 271.606 76.44C274.688 76.44 278.184 76.21 280.806 76.21C283.244 76.21 284.072 77.406 284.072 78.924C284.072 81.546 280.852 82.328 279.932 85.594C279.288 87.066 278.506 90.976 278.506 95.76C278.506 103.12 278.69 104.96 279.104 104.96Z" fill="white"/>
<line x1="260.25" y1="79" x2="260.25" y2="139" stroke="white" stroke-width="2.5"/>
<rect x="81.416" y="117.919" width="1.47833" height="5.81032" transform="rotate(22.2229 81.416 117.919)" fill="black"/>
<line x1="73.7491" y1="141.494" x2="93.5382" y2="93.8083" stroke="white"/>
<path d="M490.2 116.3L491.19 115.76L492.27 113.42L491.82 112.34L491.37 111.17L490.47 109.91L490.02 108.56L490.2 107.03L489.39 105.86L488.58 104.6L488.31 103.88L487.77 102.8L487.32 101.63L486.87 100.37L486.51 99.11L486.78 97.94L486.15 97.04L485.52 96.05V94.52L484.89 93.62L484.35 92.63L483.54 91.28L483 89.57L483.09 88.13L483 86.87L482.28 85.7L481.56 84.44L482.64 82.82L484.62 80.66L485.07 81.02L485.88 79.67L486.78 78.32L488.13 79.67L486.33 80.93L485.16 82.46L483.9 84.08L483.18 84.71L483.27 85.43L484.53 87.77L484.44 89.12L485.7 91.46L486.24 92.63L486.6 93.8L486.96 94.88L487.41 96.05L487.77 97.31L488.22 98.48L488.76 100.28L489.21 101.54L489.75 102.53L490.38 103.52L490.83 105.5V106.94L491.82 108.11L492.09 109.73L492.81 111.26L493.8 110.27L493.98 108.65L494.25 107.03L494.43 106.85L495.51 103.79L496.68 101.45L498.66 101L497.4 99.83L498.03 98.93L498.66 97.94L498.57 96.68L499.02 95.33L499.56 93.89L501.09 93.35L500.46 91.64L500.82 89.66L501.9 87.68L502.8 87.32L502.98 86.24L503.25 85.16L503.88 83.9L504.51 82.55L503.61 81.92L502.71 81.2L501.9 80.57L501.09 79.85L500.19 78.95L499.02 78.59L498.39 77.6L497.76 76.52H498.93L500.19 76.43L501.63 76.61L502.98 76.79H505.05L506.67 76.43L508.65 76.7L509.73 78.14L510.54 76.61L513.78 76.79L515.58 76.61H521.34L522.69 76.79L524.58 76.88L523.32 78.14L522.33 78.59L521.52 79.49L520.8 80.39L519.81 81.38L518.91 82.37L518.01 83.54L517.29 84.53L517.02 85.79L516.84 86.96L515.4 88.13L517.11 89.21L517.47 92.27L516.93 94.16L516.84 95.42L517.47 96.41L517.29 99.11L516.93 101.09L515.22 102.26L516.75 103.61V105.14L516.93 106.4V107.93L517.2 109.37L517.29 110.54L517.38 111.62L517.11 112.7L516.93 113.78L517.38 114.86L517.11 116.12L516.93 117.29L515.04 118.46L516.75 119.63L516.93 122.87L516.39 125.03L516.75 126.2L517.2 127.28L516.93 128.99L517.74 130.07L518.64 131.06L518.73 132.41L520.17 132.77L521.97 134.57L522.78 135.29L523.59 135.92L524.76 137L523.59 136.82L522.78 137.36L518.19 137.09L516.84 137L516.39 136.91H515.22L514.14 136.82L512.25 137.09L509.19 136.91L508.29 135.38L506.31 137L505.14 137.09L504.06 137.18L502.35 136.91H498.84L498.39 136.82L499.47 135.29L501.99 132.77L502.98 132.23L503.61 131.24L504.24 130.16L504.78 129.26L504.96 128L504.87 126.65V125.3L505.86 123.86L505.05 122.33L505.41 120.44V114.68L505.5 113.42V112.16L507.21 111.08L505.41 110.18L505.5 108.65L505.59 107.03L504.96 108.29L504.33 109.46L503.88 110.81L502.8 113.69L502.26 114.59L502.17 115.85L501.18 117.47L500.82 119.18L499.47 120.35L499.38 121.7L499.29 122.96L499.2 124.31L497.94 125.93L497.49 127.55L497.04 128.54L496.77 130.25L496.05 131.6L495.42 132.86L494.79 134.57L494.61 135.65L493.89 136.91L493.26 138.08L492.63 139.88L492.81 140.42L491.37 140.6L490.02 140.78L489.3 140.87L487.86 140.78L486.6 139.25L487.86 138.98L489.03 139.16L490.29 139.25H490.83L491.64 138.26L492.18 136.73L492.81 135.11L492.54 134.93L493.26 133.67L494.07 132.32L494.52 131.24L495.06 130.16L494.7 128.99L495.78 126.65L495.96 125.84L496.59 124.76L497.31 123.68L498.3 121.88L499.02 120.8L499.38 118.1L500.1 117.65L500.28 116.39L500.55 115.13L501.18 113.6L501.27 112.52L501.9 111.53L502.62 110.45L503.43 109.28L503.16 107.3L504.78 104.6L505.41 103.61L504.96 101.99L505.32 100.37L505.14 99.29L505.05 98.21L504.51 100.01L503.88 101.27L503.25 102.71L502.17 105.41L501 106.76L500.91 108.02V109.28L500.28 110L500.1 111.8L499.02 113.96L498.3 115.22L496.77 115.94L497.49 117.56L496.23 120.08L495.78 121.43L495.42 122.78V123.86L494.7 124.85L493.44 126.65L492.99 128.27L491.19 128.81L492.36 130.25L492.18 131.96L491.46 132.95L490.74 133.85L490.38 134.93L490.11 135.92L489.66 137H487.14L485.52 137.18L484.98 136.01L484.44 134.75L484.08 133.67L483.54 132.14L483.27 130.97L483 129.71L482.19 128.63L481.83 127.64L481.47 126.56L482.19 124.58L481.02 124.49L480.39 122.42L479.67 120.98L479.04 119.63L478.68 118.64L479.22 117.38L477.96 116.93L478.14 115.31L477.42 113.96L476.79 112.52L476.16 111.35L475.53 110.36L474.99 109.28L474.9 111.08L475.53 111.98V115.49L475.17 116.93L475.8 117.65L475.53 119.09L475.26 120.44V122.15L475.08 123.5L474.99 124.76L475.44 126.56L475.89 127.82V129.26L476.52 130.34V131.69L477.06 132.77L478.32 133.49L479.4 134.12L480.21 135.02H482.19L481.65 136.46L481.2 137.9V140.51L480.48 140.78H479.31L478.23 140.69L477.42 140.78L475.26 140.6L473.46 140.96L472.2 140.87L471.03 140.78L469.59 140.6L467.07 140.78L465.81 141.05L462.75 140.69L461.13 140.78L460.32 140.69L459.42 139.97L458.61 139.25H461.13L462.93 139.16L463.11 138.89L464.64 139.07L466.26 139.25L466.71 138.89L468.06 138.98L469.5 139.16L470.85 139.25L470.58 139.52L472.11 139.43L473.64 139.25H476.16L476.97 139.07H479.85L480.03 137.27L480.12 136.19L479.31 135.92L477.69 135.2L476.61 134.21L475.44 133.04L475.53 131.96L474.9 130.88L474.45 129.62L474.09 128.18L473.91 126.74L473.73 125.48V121.34L474.09 120.71L473.73 118.55L473.46 117.02L473.55 115.13L473.37 112.61L473.64 110.63V108.47L474.27 107.39L473.73 105.23L473.01 103.88L472.47 102.8L472.11 100.82L471.12 99.11L471.03 100.19L470.94 101.18L471.48 103.34V103.97L471.21 105.95V107.57L471.03 108.74L470.94 109.91L471.12 111.26L471.3 112.52L471.48 114.23L470.67 115.67L471.03 116.75L471.48 117.74V119L471.57 120.17L471.48 121.61L470.31 122.96L471.57 123.77L471.66 125.3V126.47L471.75 127.82L471.93 129.08L472.38 130.25L472.56 132.14L473.46 132.95L473.91 133.76L475.08 134.84L475.98 135.56L477.78 136.28L477.96 136.73L476.07 136.91H474.27L472.29 136.64H471.12L469.95 136.73H468.78L467.97 135.56L467.07 136.28L466.26 136.91L464.91 137L463.56 137.18L462.39 137.09L461.31 137L460.32 137.09H459.06L457.89 137L458.16 136.55L459.6 135.38L460.14 135.11L461.58 133.85L462.57 132.5L463.38 131.15L463.92 129.62L465.45 128.81L464.37 127.73L464.19 126.11L464.46 125.21L464.64 124.04L464.73 122.96L464.82 121.79L465.81 120.53L464.55 119.36V117.29L464.37 116.21L464.19 115.04L464.37 113.78L464.64 112.43V109.28L464.73 107.66V105.68L465.09 104.06L464.82 102.89L464.64 101.63L465.72 100.19L464.55 99.38L464.91 97.31V93.8L465 92.72L464.64 91.01L465.81 89.66L464.73 88.85L464.64 87.32L465 86.06L464.1 84.44L463.11 82.64L463.56 81.92L462.66 81.02L461.85 80.03L460.59 79.4L460.05 78.23L458.79 77.51L457.62 76.79L458.7 76.61L459.87 76.43L461.58 76.79H463.56L465.18 76.52L466.8 76.7L468.33 78.23L469.59 76.79L471.03 76.61L472.56 76.43L473.19 76.34L476.43 76.7L477.87 76.34L479.31 76.97L480.84 76.79L482.46 76.61H483.54L484.71 76.52L486.24 76.79L485.16 77.51L484.17 78.14L483.36 79.4L482.55 80.48L481.74 81.29L481.02 82.1L479.4 83.54L478.41 84.35L478.95 85.97L479.67 87.05L480.93 89.93L479.94 91.46L481.38 92.45L482.1 94.16L482.64 95.33L483.27 96.41L483.99 97.22L484.26 98.84L484.62 100.37L485.43 102.53L484.35 103.7L486.33 104.78L486.6 105.77L486.96 106.76L487.95 107.57L488.49 110.27L489.03 111.98L489.66 112.61L489.84 114.05L490.02 115.22L490.2 116.3ZM526.02 140.6L524.94 140.87L522.78 140.51L520.26 140.69L519.09 140.78H517.38L514.68 140.6L512.7 140.96L511.17 140.87L509.73 140.78L508.92 140.6L507.84 140.69H506.76L505.59 140.78H504.24L502.44 140.42L501.18 140.6L499.92 140.69L499.11 139.97L498.39 139.25H499.65L502.89 139.43L504.33 139.25L505.14 138.89L506.13 139.07L507.21 139.25L508.38 139.34H509.55L510.81 139.07L511.89 138.8L513.51 138.98L515.13 139.07L516.84 139.25H518.82L519.09 138.98L520.53 139.07H522.06L523.41 139.43H525.12L527.1 137.09L525.48 135.65L524.04 134.3L523.5 134.21L521.88 131.87L519.9 130.07L519.72 129.62L519.36 126.74L519.54 125.3L519.36 124.31L519.18 123.23V121.43L519.54 119.99L519.36 119L519.18 117.92V113.96L519.72 113.15L519.45 111.98L519.27 110.72L519.18 109.55L519.09 108.11V106.67L519.63 106.22L519.36 104.87L519.18 103.52V97.67L519.54 97.04L519.18 95.24L519 93.89L518.91 92.45L519.72 90.83L519.18 88.94L519.54 87.32L519.18 85.34L520.26 84.53L521.52 83.54L522.06 82.28L522.69 81.02L524.49 79.94L525.21 79.76L525.84 78.95L526.47 78.05L527.19 79.13L524.58 81.74L523.95 82.82L523.14 83.81L522.33 84.71L520.17 85.97L520.44 87.14L520.8 88.22V89.48L520.89 91.28V92.36L520.98 93.35L520.62 95.15L520.53 95.87L520.8 97.04L521.16 98.21L520.98 99.38L520.89 100.55L520.26 102.35L520.71 104.06L520.62 105.23L520.53 106.31L520.71 108.11L520.8 108.02L520.89 109.46L521.07 110.9L520.71 112.25L520.35 113.51L520.71 114.77L520.8 116.39L520.53 117.74L520.62 118.82L520.8 119.81L520.44 121.97L520.53 123.05L520.71 124.04L521.52 124.49L520.98 125.93L520.44 127.28L520.26 128.99L521.25 129.62L522.33 130.16L523.32 131.69L525.12 132.95L525.66 134.3L528 135.92L528.45 137.18L527.55 138.44L526.74 139.7L526.02 140.6Z" fill="white"/>
<path d="M368.287 15.5977H376.441C376.643 15.5977 376.796 15.5521 376.9 15.4609C377.005 15.3698 377.089 15.207 377.154 14.9727H377.467V18.625H377.154C377.089 18.3906 377.005 18.2279 376.9 18.1367C376.796 18.0456 376.643 18 376.441 18H366.061C365.729 18 365.504 18.0391 365.387 18.1172C365.27 18.1953 365.182 18.3646 365.123 18.625H364.811C364.804 18.2995 364.801 18.0911 364.801 18C364.801 17.1667 364.895 16.4798 365.084 15.9395C365.468 14.8457 366.184 13.918 367.232 13.1562C367.773 12.7656 368.655 12.2904 369.879 11.7305L371.529 10.9785C372.304 10.6204 372.861 10.2526 373.199 9.875C373.544 9.49089 373.717 9.03841 373.717 8.51758C373.717 7.92513 373.512 7.47591 373.102 7.16992C372.698 6.85742 372.109 6.70117 371.334 6.70117C370.39 6.70117 369.511 6.93229 368.697 7.39453C367.91 7.83724 367.516 8.29297 367.516 8.76172C367.516 8.8724 367.568 9.07747 367.672 9.37695L367.457 9.60156L364.859 6.79883L365.094 6.58398C365.341 6.70117 365.523 6.75977 365.641 6.75977C365.745 6.75977 365.836 6.73698 365.914 6.69141C365.992 6.64583 366.152 6.51562 366.393 6.30078C367.825 5.05729 369.592 4.43555 371.695 4.43555C373.206 4.43555 374.413 4.80664 375.318 5.54883C376.236 6.30404 376.695 7.3099 376.695 8.56641C376.695 9.80339 376.256 10.8255 375.377 11.6328C374.798 12.1602 374.02 12.6419 373.043 13.0781L371.539 13.752C371.383 13.8301 371.028 13.9798 370.475 14.2012C369.798 14.4746 369.322 14.6992 369.049 14.875C368.775 15.0443 368.521 15.2852 368.287 15.5977ZM380.787 9.48438V5.93945H381.1C381.171 6.18034 381.24 6.33659 381.305 6.4082C381.37 6.47982 381.471 6.51562 381.607 6.51562C381.673 6.51562 381.764 6.5026 381.881 6.47656L382.721 6.26172V5.68555C382.721 5.49023 382.675 5.34049 382.584 5.23633C382.493 5.13216 382.33 5.04753 382.096 4.98242V4.66992H386.168V4.98242C385.934 5.04753 385.771 5.13216 385.68 5.23633C385.589 5.33398 385.543 5.48372 385.543 5.68555V16.9746C385.543 17.1764 385.589 17.3294 385.68 17.4336C385.771 17.5378 385.934 17.6224 386.168 17.6875V18H382.096V17.6875C382.33 17.6224 382.493 17.5378 382.584 17.4336C382.675 17.3294 382.721 17.1764 382.721 16.9746V8.53711L381.803 8.76172C381.588 8.8138 381.432 8.88867 381.334 8.98633C381.243 9.08398 381.165 9.25 381.1 9.48438H380.787ZM400.201 10.8418V14.2207H399.889C399.824 13.9863 399.739 13.8236 399.635 13.7324C399.531 13.6413 399.378 13.5957 399.176 13.5957H396.773C396.578 13.5957 396.425 13.6445 396.314 13.7422C396.21 13.8333 396.129 13.9928 396.07 14.2207H395.758V10.8418H396.07C396.129 11.0762 396.21 11.2422 396.314 11.3398C396.425 11.431 396.578 11.4766 396.773 11.4766H399.176C399.378 11.4766 399.531 11.431 399.635 11.3398C399.739 11.2487 399.824 11.0827 399.889 10.8418H400.201ZM409.498 15.5977H417.652C417.854 15.5977 418.007 15.5521 418.111 15.4609C418.215 15.3698 418.3 15.207 418.365 14.9727H418.678V18.625H418.365C418.3 18.3906 418.215 18.2279 418.111 18.1367C418.007 18.0456 417.854 18 417.652 18H407.271C406.939 18 406.715 18.0391 406.598 18.1172C406.48 18.1953 406.393 18.3646 406.334 18.625H406.021C406.015 18.2995 406.012 18.0911 406.012 18C406.012 17.1667 406.106 16.4798 406.295 15.9395C406.679 14.8457 407.395 13.918 408.443 13.1562C408.984 12.7656 409.866 12.2904 411.09 11.7305L412.74 10.9785C413.515 10.6204 414.072 10.2526 414.41 9.875C414.755 9.49089 414.928 9.03841 414.928 8.51758C414.928 7.92513 414.723 7.47591 414.312 7.16992C413.909 6.85742 413.32 6.70117 412.545 6.70117C411.601 6.70117 410.722 6.93229 409.908 7.39453C409.12 7.83724 408.727 8.29297 408.727 8.76172C408.727 8.8724 408.779 9.07747 408.883 9.37695L408.668 9.60156L406.07 6.79883L406.305 6.58398C406.552 6.70117 406.734 6.75977 406.852 6.75977C406.956 6.75977 407.047 6.73698 407.125 6.69141C407.203 6.64583 407.363 6.51562 407.604 6.30078C409.036 5.05729 410.803 4.43555 412.906 4.43555C414.417 4.43555 415.624 4.80664 416.529 5.54883C417.447 6.30404 417.906 7.3099 417.906 8.56641C417.906 9.80339 417.467 10.8255 416.588 11.6328C416.008 12.1602 415.23 12.6419 414.254 13.0781L412.75 13.752C412.594 13.8301 412.239 13.9798 411.686 14.2012C411.008 14.4746 410.533 14.6992 410.26 14.875C409.986 15.0443 409.732 15.2852 409.498 15.5977ZM430.729 11.0078C432.206 11.5612 432.945 12.5443 432.945 13.957C432.945 15.4023 432.311 16.4993 431.041 17.248C429.928 17.9056 428.535 18.2344 426.861 18.2344C425.084 18.2344 423.473 17.8861 422.027 17.1895C421.422 16.8965 421.031 16.75 420.855 16.75C420.693 16.75 420.471 16.8704 420.191 17.1113L419.908 16.9648L421.471 13.3613L421.764 13.4883C421.731 13.5664 421.715 13.6348 421.715 13.6934C421.715 14.0449 421.894 14.3672 422.252 14.6602C422.714 15.0378 423.375 15.3503 424.234 15.5977C425.094 15.8385 425.956 15.959 426.822 15.959C427.643 15.959 428.346 15.8255 428.932 15.5586C429.674 15.2201 430.045 14.6895 430.045 13.9668C430.045 13.3418 429.781 12.8698 429.254 12.5508C428.727 12.2318 427.949 12.0723 426.92 12.0723C426.295 12.0723 425.862 12.1178 425.621 12.209C425.387 12.3001 425.237 12.4792 425.172 12.7461H424.859V9.47461H425.172C425.25 9.76758 425.393 9.95964 425.602 10.0508C425.816 10.1354 426.233 10.1777 426.852 10.1777C427.815 10.1777 428.554 10.0085 429.068 9.66992C429.518 9.38346 429.742 8.97005 429.742 8.42969C429.742 7.8763 429.492 7.44987 428.99 7.15039C428.489 6.85091 427.773 6.70117 426.842 6.70117C425.527 6.70117 424.371 6.99089 423.375 7.57031C422.893 7.85677 422.652 8.15625 422.652 8.46875C422.652 8.59245 422.695 8.73893 422.779 8.9082L422.535 9.10352L420.289 6.33984L420.533 6.14453C420.774 6.25521 420.953 6.31055 421.07 6.31055C421.201 6.31055 421.376 6.23568 421.598 6.08594C423.232 4.98568 425.058 4.43555 427.076 4.43555C428.482 4.43555 429.667 4.71224 430.631 5.26562C431.184 5.58464 431.617 5.99805 431.93 6.50586C432.249 7.0332 432.408 7.6224 432.408 8.27344C432.408 9.4388 431.848 10.3503 430.729 11.0078ZM453.17 17.8145L448.258 8.79102V16.9746C448.258 17.1764 448.303 17.3294 448.395 17.4336C448.486 17.5378 448.648 17.6224 448.883 17.6875V18H444.967V17.6875C445.201 17.6224 445.364 17.5378 445.455 17.4336C445.546 17.3294 445.592 17.1764 445.592 16.9746V5.68555C445.592 5.49023 445.546 5.34049 445.455 5.23633C445.364 5.13216 445.201 5.04753 444.967 4.98242V4.66992H450.104V4.98242C449.798 5.06055 449.645 5.23958 449.645 5.51953C449.645 5.64974 449.69 5.79948 449.781 5.96875L453.414 12.668L457.096 6.08594C457.258 5.78646 457.34 5.56836 457.34 5.43164C457.34 5.16471 457.177 5.01497 456.852 4.98242V4.66992H461.891V4.98242C461.656 5.04753 461.493 5.13216 461.402 5.23633C461.311 5.34049 461.266 5.49023 461.266 5.68555V16.9746C461.266 17.1764 461.311 17.3294 461.402 17.4336C461.493 17.5378 461.656 17.6224 461.891 17.6875V18H457.73V17.6875C457.958 17.6289 458.118 17.5475 458.209 17.4434C458.307 17.3327 458.355 17.1764 458.355 16.9746V8.79102L453.17 17.8145ZM474.068 14.6016H468.014L467.115 16.4766C466.992 16.737 466.93 16.9421 466.93 17.0918C466.93 17.3783 467.148 17.5768 467.584 17.6875V18H463.17V17.6875C463.43 17.6354 463.629 17.5443 463.766 17.4141C463.902 17.2839 464.059 17.0299 464.234 16.6523L469.137 6.4082C469.293 6.08268 469.371 5.82227 469.371 5.62695C469.371 5.32747 469.182 5.11263 468.805 4.98242V4.66992H473.531V4.98242C473.147 5.0931 472.955 5.28516 472.955 5.55859C472.955 5.7474 473.017 5.96224 473.141 6.20312L478.219 16.4766C478.434 16.9128 478.622 17.2122 478.785 17.375C478.948 17.5312 479.166 17.6354 479.439 17.6875V18H474.537V17.6875C474.967 17.6159 475.182 17.4141 475.182 17.082C475.182 16.9453 475.117 16.7435 474.986 16.4766L474.068 14.6016ZM473.229 12.7754L471.07 8.0293L468.883 12.7754H473.229ZM484.107 12.5605V16.9844C484.107 17.1797 484.153 17.3327 484.244 17.4434C484.342 17.5475 484.505 17.6289 484.732 17.6875V18H480.572V17.6875C480.807 17.6224 480.969 17.5378 481.061 17.4336C481.152 17.3294 481.197 17.1797 481.197 16.9844V5.69531C481.197 5.49349 481.152 5.34049 481.061 5.23633C480.969 5.13216 480.807 5.04753 480.572 4.98242V4.66992H488.912C489.928 4.66992 490.732 4.72852 491.324 4.8457C491.923 4.96289 492.444 5.16797 492.887 5.46094C493.401 5.79948 493.785 6.25846 494.039 6.83789C494.28 7.39779 494.4 7.99674 494.4 8.63477C494.4 10.8092 493.193 12.082 490.777 12.4531L493.365 16.1348C493.821 16.7793 494.153 17.196 494.361 17.3848C494.576 17.5671 494.837 17.668 495.143 17.6875V18H490.318V17.6875C490.65 17.6354 490.816 17.5182 490.816 17.3359C490.816 17.2188 490.663 16.9355 490.357 16.4863L487.662 12.5605H484.107ZM484.107 10.3633H488.6C489.264 10.3633 489.732 10.3438 490.006 10.3047C490.279 10.2656 490.53 10.1842 490.758 10.0605C491.253 9.79362 491.5 9.31185 491.5 8.61523C491.5 7.91862 491.253 7.43685 490.758 7.16992C490.523 7.03971 490.273 6.95833 490.006 6.92578C489.745 6.88672 489.277 6.86719 488.6 6.86719H484.107V10.3633ZM509.41 13.4199L511.266 16.2031L511.012 16.3789C510.829 16.2096 510.68 16.125 510.562 16.125C510.445 16.125 510.117 16.2812 509.576 16.5938C508.456 17.2383 507.512 17.6745 506.744 17.9023C505.982 18.1237 505.074 18.2344 504.02 18.2344C501.917 18.2344 500.191 17.7363 498.844 16.7402C498.049 16.1608 497.424 15.4414 496.969 14.582C496.441 13.599 496.178 12.515 496.178 11.3301C496.178 9.71549 496.65 8.3125 497.594 7.12109C499.013 5.33073 501.158 4.43555 504.029 4.43555C505.084 4.43555 505.989 4.54622 506.744 4.76758C507.499 4.98893 508.443 5.42513 509.576 6.07617C510.117 6.38216 510.445 6.53516 510.562 6.53516C510.68 6.53516 510.829 6.45052 511.012 6.28125L511.266 6.45703L509.41 9.24023L509.146 9.06445C509.16 8.96029 509.166 8.8724 509.166 8.80078C509.166 8.61198 509.085 8.4362 508.922 8.27344C508.759 8.10417 508.469 7.90234 508.053 7.66797C506.9 7.01693 505.68 6.69141 504.391 6.69141C502.867 6.69141 501.653 7.07227 500.748 7.83398C499.68 8.72591 499.146 9.89128 499.146 11.3301C499.146 12.7689 499.68 13.9342 500.748 14.8262C501.653 15.5879 502.867 15.9688 504.391 15.9688C505.68 15.9688 506.9 15.6432 508.053 14.9922C508.469 14.7578 508.759 14.5592 508.922 14.3965C509.085 14.2272 509.166 14.0482 509.166 13.8594C509.166 13.7878 509.16 13.7031 509.146 13.6055L509.41 13.4199ZM524.293 12.1797H516.607V16.9844C516.607 17.1797 516.653 17.3327 516.744 17.4434C516.842 17.5475 517.005 17.6289 517.232 17.6875V18H513.072V17.6875C513.307 17.6224 513.469 17.5378 513.561 17.4336C513.652 17.3294 513.697 17.1797 513.697 16.9844V5.68555C513.697 5.49023 513.652 5.34049 513.561 5.23633C513.469 5.13216 513.307 5.04753 513.072 4.98242V4.66992H517.232V4.98242C516.998 5.04102 516.835 5.12565 516.744 5.23633C516.653 5.34049 516.607 5.49023 516.607 5.68555V9.98242H524.293V5.68555C524.293 5.49023 524.247 5.34049 524.156 5.23633C524.065 5.12565 523.902 5.04102 523.668 4.98242V4.66992H527.828V4.98242C527.594 5.04753 527.431 5.13216 527.34 5.23633C527.249 5.34049 527.203 5.49023 527.203 5.68555V16.9844C527.203 17.1797 527.249 17.3294 527.34 17.4336C527.431 17.5378 527.594 17.6224 527.828 17.6875V18H523.668V17.6875C523.896 17.6289 524.055 17.5475 524.146 17.4434C524.244 17.3327 524.293 17.1797 524.293 16.9844V12.1797Z" fill="white"/>
<path d="M389.401 4.94824L389.003 5.73193L388.935 5.69287C388.936 5.6766 388.937 5.66357 388.937 5.65381C388.937 5.59847 388.89 5.53906 388.795 5.47559C388.506 5.27376 388.166 5.17285 387.775 5.17285C387.602 5.17285 387.45 5.19401 387.318 5.23633C387.222 5.26888 387.144 5.31771 387.084 5.38281C387.025 5.44792 386.996 5.51872 386.996 5.59521C386.996 5.72054 387.072 5.80599 387.223 5.85156C387.301 5.87435 387.469 5.89876 387.726 5.9248L388.109 5.96387C388.337 5.98828 388.521 6.02165 388.661 6.06396C388.803 6.10628 388.928 6.16569 389.037 6.24219C389.148 6.32194 389.235 6.42692 389.298 6.55713C389.363 6.68734 389.396 6.8265 389.396 6.97461C389.396 7.20898 389.32 7.41732 389.169 7.59961C389.032 7.76562 388.82 7.88851 388.532 7.96826C388.317 8.02848 388.087 8.05859 387.841 8.05859C387.4 8.05859 386.964 7.9528 386.535 7.74121C386.444 7.69889 386.389 7.67773 386.371 7.67773C386.35 7.67773 386.317 7.69564 386.271 7.73145L386.2 7.69482L386.562 6.87695L386.632 6.91113C386.632 6.92578 386.632 6.93636 386.632 6.94287C386.632 7.01611 386.667 7.08366 386.737 7.14551C386.843 7.23991 387.007 7.32129 387.228 7.38965C387.449 7.45801 387.659 7.49219 387.858 7.49219C388.074 7.49219 388.259 7.45557 388.412 7.38232C388.497 7.34163 388.564 7.28792 388.615 7.22119C388.665 7.15283 388.69 7.08203 388.69 7.00879C388.69 6.89811 388.631 6.81917 388.512 6.77197C388.429 6.73942 388.262 6.70931 388.009 6.68164L387.633 6.64258C387.381 6.61654 387.203 6.59212 387.099 6.56934C386.994 6.54492 386.89 6.50667 386.786 6.45459C386.638 6.38135 386.522 6.27148 386.437 6.125C386.361 5.99316 386.322 5.8418 386.322 5.6709C386.322 5.38932 386.419 5.15658 386.613 4.97266C386.867 4.73014 387.248 4.60889 387.755 4.60889C387.969 4.60889 388.167 4.63086 388.351 4.6748C388.535 4.71712 388.764 4.79606 389.04 4.91162C389.134 4.94906 389.192 4.96777 389.213 4.96777C389.247 4.96777 389.287 4.94906 389.333 4.91162L389.401 4.94824ZM391.747 5.2168V7.74365C391.747 7.79411 391.758 7.83236 391.781 7.8584C391.804 7.88444 391.845 7.9056 391.903 7.92188V8H390.863V7.92188C390.922 7.9056 390.963 7.88444 390.985 7.8584C391.008 7.83236 391.02 7.79411 391.02 7.74365V5.2168H389.984C389.936 5.2168 389.898 5.22819 389.872 5.25098C389.846 5.27214 389.825 5.31201 389.809 5.37061H389.73V4.50879H389.809C389.826 4.56901 389.848 4.61051 389.872 4.6333C389.898 4.65609 389.936 4.66748 389.984 4.66748H392.78C392.83 4.66748 392.868 4.65609 392.895 4.6333C392.921 4.61051 392.942 4.56901 392.958 4.50879H393.036V5.37061H392.958C392.942 5.31201 392.921 5.27214 392.895 5.25098C392.868 5.22819 392.83 5.2168 392.78 5.2168H391.747Z" fill="white"/>
<path d="M434.184 6.64014V7.74609C434.184 7.79492 434.195 7.83317 434.218 7.86084C434.243 7.88688 434.283 7.90723 434.34 7.92188V8H433.3V7.92188C433.359 7.9056 433.4 7.88444 433.422 7.8584C433.445 7.83236 433.457 7.79492 433.457 7.74609V4.92383C433.457 4.87337 433.445 4.83512 433.422 4.80908C433.4 4.78304 433.359 4.76188 433.3 4.74561V4.66748H435.385C435.639 4.66748 435.84 4.68213 435.988 4.71143C436.138 4.74072 436.268 4.79199 436.379 4.86523C436.507 4.94987 436.604 5.06462 436.667 5.20947C436.727 5.34945 436.757 5.49919 436.757 5.65869C436.757 6.20231 436.455 6.52051 435.852 6.61328L436.499 7.53369C436.612 7.69482 436.695 7.79899 436.748 7.84619C436.801 7.89176 436.866 7.91699 436.943 7.92188V8H435.737V7.92188C435.82 7.90885 435.861 7.87956 435.861 7.83398C435.861 7.80469 435.823 7.73389 435.747 7.62158L435.073 6.64014H434.184ZM434.184 6.09082H435.307C435.473 6.09082 435.59 6.08594 435.659 6.07617C435.727 6.06641 435.79 6.04606 435.847 6.01514C435.97 5.9484 436.032 5.82796 436.032 5.65381C436.032 5.47965 435.97 5.35921 435.847 5.29248C435.788 5.25993 435.725 5.23958 435.659 5.23145C435.594 5.22168 435.476 5.2168 435.307 5.2168H434.184V6.09082ZM437.5 7.74365V4.92383C437.5 4.87337 437.488 4.83512 437.465 4.80908C437.443 4.78304 437.402 4.76188 437.343 4.74561V4.66748H439.201C439.608 4.66748 439.921 4.71387 440.139 4.80664C440.451 4.94173 440.682 5.16471 440.832 5.47559C440.951 5.71973 441.01 6.00537 441.01 6.33252C441.01 6.90706 440.834 7.34489 440.48 7.646C440.332 7.77295 440.159 7.8641 439.96 7.91943C439.762 7.97314 439.509 8 439.201 8H437.343V7.92188C437.402 7.9056 437.443 7.88444 437.465 7.8584C437.488 7.83236 437.5 7.79411 437.5 7.74365ZM438.227 7.45068H439.14C439.431 7.45068 439.65 7.41081 439.797 7.33105C440.111 7.16016 440.268 6.82731 440.268 6.33252C440.268 5.97445 440.183 5.7002 440.014 5.50977C439.92 5.40397 439.806 5.3291 439.672 5.28516C439.539 5.23958 439.361 5.2168 439.14 5.2168H438.227V7.45068Z" fill="white"/>
<path d="M14.5625 174.094V182.18C14.5625 182.341 14.599 182.464 14.6719 182.547C14.7448 182.63 14.875 182.698 15.0625 182.75V183H11.7344V182.75C11.9219 182.698 12.0521 182.63 12.125 182.547C12.1979 182.464 12.2344 182.341 12.2344 182.18V174.094H8.92188C8.76562 174.094 8.64583 174.13 8.5625 174.203C8.47917 174.271 8.41146 174.398 8.35938 174.586H8.10938V171.828H8.35938C8.41667 172.021 8.48438 172.154 8.5625 172.227C8.64583 172.299 8.76562 172.336 8.92188 172.336H17.8672C18.0286 172.336 18.151 172.299 18.2344 172.227C18.3177 172.154 18.3854 172.021 18.4375 171.828H18.6875V174.586H18.4375C18.3854 174.398 18.3177 174.271 18.2344 174.203C18.151 174.13 18.0286 174.094 17.8672 174.094H14.5625ZM28.7344 178.344H22.5859V182.188C22.5859 182.344 22.6224 182.466 22.6953 182.555C22.7734 182.638 22.9036 182.703 23.0859 182.75V183H19.7578V182.75C19.9453 182.698 20.0755 182.63 20.1484 182.547C20.2214 182.464 20.2578 182.344 20.2578 182.188V173.148C20.2578 172.992 20.2214 172.872 20.1484 172.789C20.0755 172.706 19.9453 172.638 19.7578 172.586V172.336H23.0859V172.586C22.8984 172.633 22.7682 172.701 22.6953 172.789C22.6224 172.872 22.5859 172.992 22.5859 173.148V176.586H28.7344V173.148C28.7344 172.992 28.6979 172.872 28.625 172.789C28.5521 172.701 28.4219 172.633 28.2344 172.586V172.336H31.5625V172.586C31.375 172.638 31.2448 172.706 31.1719 172.789C31.099 172.872 31.0625 172.992 31.0625 173.148V182.188C31.0625 182.344 31.099 182.464 31.1719 182.547C31.2448 182.63 31.375 182.698 31.5625 182.75V183H28.2344V182.75C28.4167 182.703 28.5443 182.638 28.6172 182.555C28.6953 182.466 28.7344 182.344 28.7344 182.188V178.344ZM36.3203 178.32V181.242H43.1797C43.3359 181.242 43.4557 181.206 43.5391 181.133C43.6224 181.06 43.6901 180.93 43.7422 180.742H43.9922V183.5H43.7422C43.6901 183.312 43.6224 183.182 43.5391 183.109C43.4557 183.036 43.3359 183 43.1797 183H33.4922V182.75C33.6797 182.698 33.8099 182.63 33.8828 182.547C33.9557 182.464 33.9922 182.341 33.9922 182.18V173.156C33.9922 172.995 33.9557 172.872 33.8828 172.789C33.8099 172.706 33.6797 172.638 33.4922 172.586V172.336H42.9922C43.1484 172.336 43.2682 172.299 43.3516 172.227C43.4349 172.148 43.5026 172.016 43.5547 171.828H43.8047V174.586H43.5547C43.5026 174.404 43.4349 174.276 43.3516 174.203C43.2682 174.13 43.1484 174.094 42.9922 174.094H36.3203V176.625H40.6484C40.8047 176.625 40.9245 176.589 41.0078 176.516C41.0911 176.443 41.1589 176.312 41.2109 176.125H41.4609V178.82H41.2109C41.1589 178.638 41.0911 178.51 41.0078 178.438C40.9245 178.359 40.8047 178.32 40.6484 178.32H36.3203ZM59.5703 173.234L58.2969 175.742L58.0781 175.617C58.0833 175.565 58.0859 175.523 58.0859 175.492C58.0859 175.315 57.9349 175.125 57.6328 174.922C56.7057 174.276 55.6172 173.953 54.3672 173.953C53.8151 173.953 53.3281 174.021 52.9062 174.156C52.599 174.26 52.349 174.417 52.1562 174.625C51.9688 174.833 51.875 175.06 51.875 175.305C51.875 175.706 52.1172 175.979 52.6016 176.125C52.8516 176.198 53.388 176.276 54.2109 176.359L55.4375 176.484C56.1667 176.562 56.7552 176.669 57.2031 176.805C57.6562 176.94 58.0573 177.13 58.4062 177.375C58.7604 177.63 59.0391 177.966 59.2422 178.383C59.4505 178.799 59.5547 179.245 59.5547 179.719C59.5547 180.469 59.3125 181.135 58.8281 181.719C58.3906 182.25 57.7109 182.643 56.7891 182.898C56.1016 183.091 55.3646 183.188 54.5781 183.188C53.1667 183.188 51.7734 182.849 50.3984 182.172C50.1068 182.036 49.9323 181.969 49.875 181.969C49.8073 181.969 49.7005 182.026 49.5547 182.141L49.3281 182.023L50.4844 179.406L50.7109 179.516C50.7109 179.562 50.7109 179.596 50.7109 179.617C50.7109 179.852 50.8229 180.068 51.0469 180.266C51.3854 180.568 51.9089 180.828 52.6172 181.047C53.3255 181.266 53.9974 181.375 54.6328 181.375C55.3255 181.375 55.9167 181.258 56.4062 181.023C56.6771 180.893 56.8932 180.721 57.0547 180.508C57.2161 180.289 57.2969 180.062 57.2969 179.828C57.2969 179.474 57.1068 179.221 56.7266 179.07C56.4609 178.966 55.9245 178.87 55.1172 178.781L53.9141 178.656C53.1068 178.573 52.5365 178.495 52.2031 178.422C51.8698 178.344 51.5365 178.221 51.2031 178.055C50.7292 177.82 50.3568 177.469 50.0859 177C49.8411 176.578 49.7188 176.094 49.7188 175.547C49.7188 174.646 50.0286 173.901 50.6484 173.312C51.4609 172.536 52.6797 172.148 54.3047 172.148C54.987 172.148 55.6224 172.219 56.2109 172.359C56.7995 172.495 57.5339 172.747 58.4141 173.117C58.7161 173.237 58.901 173.297 58.9688 173.297C59.0781 173.297 59.2057 173.237 59.3516 173.117L59.5703 173.234ZM64.0078 178.672V182.188C64.0078 182.344 64.0443 182.466 64.1172 182.555C64.1953 182.638 64.3255 182.703 64.5078 182.75V183H61.1797V182.75C61.3672 182.698 61.4974 182.63 61.5703 182.547C61.6432 182.464 61.6797 182.344 61.6797 182.188V173.156C61.6797 172.995 61.6432 172.872 61.5703 172.789C61.4974 172.706 61.3672 172.638 61.1797 172.586V172.336H67.8359C68.612 172.336 69.2266 172.388 69.6797 172.492C70.138 172.596 70.5417 172.776 70.8906 173.031C71.25 173.297 71.5312 173.646 71.7344 174.078C71.9375 174.526 72.0391 175 72.0391 175.5C72.0391 176.219 71.8464 176.849 71.4609 177.391C71.1276 177.854 70.6849 178.185 70.1328 178.383C69.5859 178.576 68.8203 178.672 67.8359 178.672H64.0078ZM64.0078 176.914H67.5625C68.2708 176.914 68.7682 176.839 69.0547 176.688C69.237 176.589 69.3828 176.432 69.4922 176.219C69.6068 176 69.6641 175.76 69.6641 175.5C69.6641 175.245 69.6068 175.01 69.4922 174.797C69.3828 174.578 69.237 174.419 69.0547 174.32C68.7734 174.169 68.276 174.094 67.5625 174.094H64.0078V176.914ZM79.2891 172.148C81.1484 172.148 82.6224 172.651 83.7109 173.656C84.862 174.708 85.4375 176.068 85.4375 177.734C85.4375 178.755 85.1615 179.708 84.6094 180.594C83.5312 182.323 81.763 183.188 79.3047 183.188C77.4609 183.188 75.9948 182.685 74.9062 181.68C74.3229 181.143 73.8802 180.5 73.5781 179.75C73.3125 179.089 73.1797 178.393 73.1797 177.664C73.1797 176.596 73.4531 175.62 74 174.734C75.0469 173.042 76.8099 172.18 79.2891 172.148ZM79.2969 173.953C78.2812 173.953 77.4349 174.255 76.7578 174.859C75.9557 175.573 75.5547 176.508 75.5547 177.664C75.5547 178.82 75.9557 179.755 76.7578 180.469C77.4349 181.073 78.2865 181.375 79.3125 181.375C80.3385 181.375 81.1875 181.073 81.8594 180.469C82.2604 180.109 82.5677 179.669 82.7812 179.148C82.9688 178.685 83.0625 178.206 83.0625 177.711C83.0625 176.503 82.6615 175.552 81.8594 174.859C81.1771 174.266 80.3229 173.964 79.2969 173.953ZM89.9453 178.648V182.188C89.9453 182.344 89.9818 182.466 90.0547 182.555C90.1328 182.638 90.263 182.703 90.4453 182.75V183H87.1172V182.75C87.3047 182.698 87.4349 182.63 87.5078 182.547C87.5807 182.464 87.6172 182.344 87.6172 182.188V173.156C87.6172 172.995 87.5807 172.872 87.5078 172.789C87.4349 172.706 87.3047 172.638 87.1172 172.586V172.336H93.7891C94.6016 172.336 95.2448 172.383 95.7188 172.477C96.1979 172.57 96.6146 172.734 96.9688 172.969C97.3802 173.24 97.6875 173.607 97.8906 174.07C98.0833 174.518 98.1797 174.997 98.1797 175.508C98.1797 177.247 97.2135 178.266 95.2812 178.562L97.3516 181.508C97.7161 182.023 97.9818 182.357 98.1484 182.508C98.3203 182.654 98.5286 182.734 98.7734 182.75V183H94.9141V182.75C95.1797 182.708 95.3125 182.615 95.3125 182.469C95.3125 182.375 95.1901 182.148 94.9453 181.789L92.7891 178.648H89.9453ZM89.9453 176.891H93.5391C94.0703 176.891 94.4453 176.875 94.6641 176.844C94.8828 176.812 95.0833 176.747 95.2656 176.648C95.6615 176.435 95.8594 176.049 95.8594 175.492C95.8594 174.935 95.6615 174.549 95.2656 174.336C95.0781 174.232 94.8776 174.167 94.6641 174.141C94.4557 174.109 94.0807 174.094 93.5391 174.094H89.9453V176.891ZM105.781 174.094V182.18C105.781 182.341 105.818 182.464 105.891 182.547C105.964 182.63 106.094 182.698 106.281 182.75V183H102.953V182.75C103.141 182.698 103.271 182.63 103.344 182.547C103.417 182.464 103.453 182.341 103.453 182.18V174.094H100.141C99.9844 174.094 99.8646 174.13 99.7812 174.203C99.6979 174.271 99.6302 174.398 99.5781 174.586H99.3281V171.828H99.5781C99.6354 172.021 99.7031 172.154 99.7812 172.227C99.8646 172.299 99.9844 172.336 100.141 172.336H109.086C109.247 172.336 109.37 172.299 109.453 172.227C109.536 172.154 109.604 172.021 109.656 171.828H109.906V174.586H109.656C109.604 174.398 109.536 174.271 109.453 174.203C109.37 174.13 109.247 174.094 109.086 174.094H105.781ZM120.992 173.234L119.719 175.742L119.5 175.617C119.505 175.565 119.508 175.523 119.508 175.492C119.508 175.315 119.357 175.125 119.055 174.922C118.128 174.276 117.039 173.953 115.789 173.953C115.237 173.953 114.75 174.021 114.328 174.156C114.021 174.26 113.771 174.417 113.578 174.625C113.391 174.833 113.297 175.06 113.297 175.305C113.297 175.706 113.539 175.979 114.023 176.125C114.273 176.198 114.81 176.276 115.633 176.359L116.859 176.484C117.589 176.562 118.177 176.669 118.625 176.805C119.078 176.94 119.479 177.13 119.828 177.375C120.182 177.63 120.461 177.966 120.664 178.383C120.872 178.799 120.977 179.245 120.977 179.719C120.977 180.469 120.734 181.135 120.25 181.719C119.812 182.25 119.133 182.643 118.211 182.898C117.523 183.091 116.786 183.188 116 183.188C114.589 183.188 113.195 182.849 111.82 182.172C111.529 182.036 111.354 181.969 111.297 181.969C111.229 181.969 111.122 182.026 110.977 182.141L110.75 182.023L111.906 179.406L112.133 179.516C112.133 179.562 112.133 179.596 112.133 179.617C112.133 179.852 112.245 180.068 112.469 180.266C112.807 180.568 113.331 180.828 114.039 181.047C114.747 181.266 115.419 181.375 116.055 181.375C116.747 181.375 117.339 181.258 117.828 181.023C118.099 180.893 118.315 180.721 118.477 180.508C118.638 180.289 118.719 180.062 118.719 179.828C118.719 179.474 118.529 179.221 118.148 179.07C117.883 178.966 117.346 178.87 116.539 178.781L115.336 178.656C114.529 178.573 113.958 178.495 113.625 178.422C113.292 178.344 112.958 178.221 112.625 178.055C112.151 177.82 111.779 177.469 111.508 177C111.263 176.578 111.141 176.094 111.141 175.547C111.141 174.646 111.451 173.901 112.07 173.312C112.883 172.536 114.102 172.148 115.727 172.148C116.409 172.148 117.044 172.219 117.633 172.359C118.221 172.495 118.956 172.747 119.836 173.117C120.138 173.237 120.323 173.297 120.391 173.297C120.5 173.297 120.628 173.237 120.773 173.117L120.992 173.234ZM129.43 178.336V182.18C129.43 182.341 129.466 182.466 129.539 182.555C129.617 182.638 129.747 182.703 129.93 182.75V183H126.602V182.75C126.789 182.698 126.919 182.63 126.992 182.547C127.065 182.464 127.102 182.341 127.102 182.18V173.156C127.102 172.995 127.065 172.872 126.992 172.789C126.919 172.706 126.789 172.638 126.602 172.586V172.336H136.039C136.195 172.336 136.315 172.299 136.398 172.227C136.482 172.154 136.549 172.021 136.602 171.828H136.852V174.586H136.602C136.549 174.398 136.482 174.271 136.398 174.203C136.315 174.13 136.195 174.094 136.039 174.094H129.43V176.641H133.75C133.911 176.641 134.034 176.604 134.117 176.531C134.201 176.453 134.268 176.32 134.32 176.133H134.57V178.828H134.32C134.268 178.646 134.201 178.518 134.117 178.445C134.034 178.372 133.911 178.336 133.75 178.336H129.43ZM141.07 178.32V181.242H147.93C148.086 181.242 148.206 181.206 148.289 181.133C148.372 181.06 148.44 180.93 148.492 180.742H148.742V183.5H148.492C148.44 183.312 148.372 183.182 148.289 183.109C148.206 183.036 148.086 183 147.93 183H138.242V182.75C138.43 182.698 138.56 182.63 138.633 182.547C138.706 182.464 138.742 182.341 138.742 182.18V173.156C138.742 172.995 138.706 172.872 138.633 172.789C138.56 172.706 138.43 172.638 138.242 172.586V172.336H147.742C147.898 172.336 148.018 172.299 148.102 172.227C148.185 172.148 148.253 172.016 148.305 171.828H148.555V174.586H148.305C148.253 174.404 148.185 174.276 148.102 174.203C148.018 174.13 147.898 174.094 147.742 174.094H141.07V176.625H145.398C145.555 176.625 145.674 176.589 145.758 176.516C145.841 176.443 145.909 176.312 145.961 176.125H146.211V178.82H145.961C145.909 178.638 145.841 178.51 145.758 178.438C145.674 178.359 145.555 178.32 145.398 178.32H141.07ZM160.32 173.234L159.047 175.742L158.828 175.617C158.833 175.565 158.836 175.523 158.836 175.492C158.836 175.315 158.685 175.125 158.383 174.922C157.456 174.276 156.367 173.953 155.117 173.953C154.565 173.953 154.078 174.021 153.656 174.156C153.349 174.26 153.099 174.417 152.906 174.625C152.719 174.833 152.625 175.06 152.625 175.305C152.625 175.706 152.867 175.979 153.352 176.125C153.602 176.198 154.138 176.276 154.961 176.359L156.188 176.484C156.917 176.562 157.505 176.669 157.953 176.805C158.406 176.94 158.807 177.13 159.156 177.375C159.51 177.63 159.789 177.966 159.992 178.383C160.201 178.799 160.305 179.245 160.305 179.719C160.305 180.469 160.062 181.135 159.578 181.719C159.141 182.25 158.461 182.643 157.539 182.898C156.852 183.091 156.115 183.188 155.328 183.188C153.917 183.188 152.523 182.849 151.148 182.172C150.857 182.036 150.682 181.969 150.625 181.969C150.557 181.969 150.451 182.026 150.305 182.141L150.078 182.023L151.234 179.406L151.461 179.516C151.461 179.562 151.461 179.596 151.461 179.617C151.461 179.852 151.573 180.068 151.797 180.266C152.135 180.568 152.659 180.828 153.367 181.047C154.076 181.266 154.747 181.375 155.383 181.375C156.076 181.375 156.667 181.258 157.156 181.023C157.427 180.893 157.643 180.721 157.805 180.508C157.966 180.289 158.047 180.062 158.047 179.828C158.047 179.474 157.857 179.221 157.477 179.07C157.211 178.966 156.674 178.87 155.867 178.781L154.664 178.656C153.857 178.573 153.286 178.495 152.953 178.422C152.62 178.344 152.286 178.221 151.953 178.055C151.479 177.82 151.107 177.469 150.836 177C150.591 176.578 150.469 176.094 150.469 175.547C150.469 174.646 150.779 173.901 151.398 173.312C152.211 172.536 153.43 172.148 155.055 172.148C155.737 172.148 156.372 172.219 156.961 172.359C157.549 172.495 158.284 172.747 159.164 173.117C159.466 173.237 159.651 173.297 159.719 173.297C159.828 173.297 159.956 173.237 160.102 173.117L160.32 173.234ZM167.828 174.094V182.18C167.828 182.341 167.865 182.464 167.938 182.547C168.01 182.63 168.141 182.698 168.328 182.75V183H165V182.75C165.188 182.698 165.318 182.63 165.391 182.547C165.464 182.464 165.5 182.341 165.5 182.18V174.094H162.188C162.031 174.094 161.911 174.13 161.828 174.203C161.745 174.271 161.677 174.398 161.625 174.586H161.375V171.828H161.625C161.682 172.021 161.75 172.154 161.828 172.227C161.911 172.299 162.031 172.336 162.188 172.336H171.133C171.294 172.336 171.417 172.299 171.5 172.227C171.583 172.154 171.651 172.021 171.703 171.828H171.953V174.586H171.703C171.651 174.398 171.583 174.271 171.5 174.203C171.417 174.13 171.294 174.094 171.133 174.094H167.828ZM182.883 172.148C184.742 172.148 186.216 172.651 187.305 173.656C188.456 174.708 189.031 176.068 189.031 177.734C189.031 178.755 188.755 179.708 188.203 180.594C187.125 182.323 185.357 183.188 182.898 183.188C181.055 183.188 179.589 182.685 178.5 181.68C177.917 181.143 177.474 180.5 177.172 179.75C176.906 179.089 176.773 178.393 176.773 177.664C176.773 176.596 177.047 175.62 177.594 174.734C178.641 173.042 180.404 172.18 182.883 172.148ZM182.891 173.953C181.875 173.953 181.029 174.255 180.352 174.859C179.549 175.573 179.148 176.508 179.148 177.664C179.148 178.82 179.549 179.755 180.352 180.469C181.029 181.073 181.88 181.375 182.906 181.375C183.932 181.375 184.781 181.073 185.453 180.469C185.854 180.109 186.161 179.669 186.375 179.148C186.562 178.685 186.656 178.206 186.656 177.711C186.656 176.503 186.255 175.552 185.453 174.859C184.771 174.266 183.917 173.964 182.891 173.953ZM193.539 178.336V182.18C193.539 182.341 193.576 182.466 193.648 182.555C193.727 182.638 193.857 182.703 194.039 182.75V183H190.711V182.75C190.898 182.698 191.029 182.63 191.102 182.547C191.174 182.464 191.211 182.341 191.211 182.18V173.156C191.211 172.995 191.174 172.872 191.102 172.789C191.029 172.706 190.898 172.638 190.711 172.586V172.336H200.148C200.305 172.336 200.424 172.299 200.508 172.227C200.591 172.154 200.659 172.021 200.711 171.828H200.961V174.586H200.711C200.659 174.398 200.591 174.271 200.508 174.203C200.424 174.13 200.305 174.094 200.148 174.094H193.539V176.641H197.859C198.021 176.641 198.143 176.604 198.227 176.531C198.31 176.453 198.378 176.32 198.43 176.133H198.68V178.828H198.43C198.378 178.646 198.31 178.518 198.227 178.445C198.143 178.372 198.021 178.336 197.859 178.336H193.539ZM206.852 182.18V173.148C206.852 172.992 206.815 172.872 206.742 172.789C206.669 172.706 206.539 172.638 206.352 172.586V172.336H209.68V172.586C209.492 172.633 209.362 172.701 209.289 172.789C209.216 172.872 209.18 172.992 209.18 173.148V182.18C209.18 182.341 209.216 182.466 209.289 182.555C209.367 182.638 209.497 182.703 209.68 182.75V183H206.352V182.75C206.539 182.698 206.669 182.63 206.742 182.547C206.815 182.464 206.852 182.341 206.852 182.18ZM212.102 182.18V173.148C212.102 172.992 212.065 172.872 211.992 172.789C211.919 172.706 211.789 172.638 211.602 172.586V172.336H214.93V172.586C214.742 172.633 214.612 172.701 214.539 172.789C214.466 172.872 214.43 172.992 214.43 173.148V182.18C214.43 182.341 214.466 182.466 214.539 182.555C214.617 182.638 214.747 182.703 214.93 182.75V183H211.602V182.75C211.789 182.698 211.919 182.63 211.992 182.547C212.065 182.464 212.102 182.341 212.102 182.18ZM222.453 174.094V182.18C222.453 182.341 222.49 182.464 222.562 182.547C222.635 182.63 222.766 182.698 222.953 182.75V183H219.625V182.75C219.812 182.698 219.943 182.63 220.016 182.547C220.089 182.464 220.125 182.341 220.125 182.18V174.094H216.812C216.656 174.094 216.536 174.13 216.453 174.203C216.37 174.271 216.302 174.398 216.25 174.586H216V171.828H216.25C216.307 172.021 216.375 172.154 216.453 172.227C216.536 172.299 216.656 172.336 216.812 172.336H225.758C225.919 172.336 226.042 172.299 226.125 172.227C226.208 172.154 226.276 172.021 226.328 171.828H226.578V174.586H226.328C226.276 174.398 226.208 174.271 226.125 174.203C226.042 174.13 225.919 174.094 225.758 174.094H222.453ZM235.031 171.055L235.891 171.766C235.297 172.453 234.862 173.099 234.586 173.703C234.081 174.781 233.828 176.104 233.828 177.672C233.828 178.943 233.984 180.026 234.297 180.922C234.615 181.818 235.146 182.701 235.891 183.57L235.031 184.281C234.359 183.802 233.773 183.203 233.273 182.484C232.247 181.005 231.734 179.401 231.734 177.672C231.734 176.365 232.031 175.115 232.625 173.922C233.219 172.729 234.021 171.773 235.031 171.055ZM237.492 182.18V173.148C237.492 172.992 237.456 172.872 237.383 172.789C237.31 172.706 237.18 172.638 236.992 172.586V172.336H240.32V172.586C240.133 172.633 240.003 172.701 239.93 172.789C239.857 172.872 239.82 172.992 239.82 173.148V182.18C239.82 182.341 239.857 182.466 239.93 182.555C240.008 182.638 240.138 182.703 240.32 182.75V183H236.992V182.75C237.18 182.698 237.31 182.63 237.383 182.547C237.456 182.464 237.492 182.341 237.492 182.18ZM252.164 173.234L250.891 175.742L250.672 175.617C250.677 175.565 250.68 175.523 250.68 175.492C250.68 175.315 250.529 175.125 250.227 174.922C249.299 174.276 248.211 173.953 246.961 173.953C246.409 173.953 245.922 174.021 245.5 174.156C245.193 174.26 244.943 174.417 244.75 174.625C244.562 174.833 244.469 175.06 244.469 175.305C244.469 175.706 244.711 175.979 245.195 176.125C245.445 176.198 245.982 176.276 246.805 176.359L248.031 176.484C248.76 176.562 249.349 176.669 249.797 176.805C250.25 176.94 250.651 177.13 251 177.375C251.354 177.63 251.633 177.966 251.836 178.383C252.044 178.799 252.148 179.245 252.148 179.719C252.148 180.469 251.906 181.135 251.422 181.719C250.984 182.25 250.305 182.643 249.383 182.898C248.695 183.091 247.958 183.188 247.172 183.188C245.76 183.188 244.367 182.849 242.992 182.172C242.701 182.036 242.526 181.969 242.469 181.969C242.401 181.969 242.294 182.026 242.148 182.141L241.922 182.023L243.078 179.406L243.305 179.516C243.305 179.562 243.305 179.596 243.305 179.617C243.305 179.852 243.417 180.068 243.641 180.266C243.979 180.568 244.503 180.828 245.211 181.047C245.919 181.266 246.591 181.375 247.227 181.375C247.919 181.375 248.51 181.258 249 181.023C249.271 180.893 249.487 180.721 249.648 180.508C249.81 180.289 249.891 180.062 249.891 179.828C249.891 179.474 249.701 179.221 249.32 179.07C249.055 178.966 248.518 178.87 247.711 178.781L246.508 178.656C245.701 178.573 245.13 178.495 244.797 178.422C244.464 178.344 244.13 178.221 243.797 178.055C243.323 177.82 242.951 177.469 242.68 177C242.435 176.578 242.312 176.094 242.312 175.547C242.312 174.646 242.622 173.901 243.242 173.312C244.055 172.536 245.273 172.148 246.898 172.148C247.581 172.148 248.216 172.219 248.805 172.359C249.393 172.495 250.128 172.747 251.008 173.117C251.31 173.237 251.495 173.297 251.562 173.297C251.672 173.297 251.799 173.237 251.945 173.117L252.164 173.234ZM260.336 182.852L256.406 175.633V182.18C256.406 182.341 256.443 182.464 256.516 182.547C256.589 182.63 256.719 182.698 256.906 182.75V183H253.773V182.75C253.961 182.698 254.091 182.63 254.164 182.547C254.237 182.464 254.273 182.341 254.273 182.18V173.148C254.273 172.992 254.237 172.872 254.164 172.789C254.091 172.706 253.961 172.638 253.773 172.586V172.336H257.883V172.586C257.638 172.648 257.516 172.792 257.516 173.016C257.516 173.12 257.552 173.24 257.625 173.375L260.531 178.734L263.477 173.469C263.607 173.229 263.672 173.055 263.672 172.945C263.672 172.732 263.542 172.612 263.281 172.586V172.336H267.312V172.586C267.125 172.638 266.995 172.706 266.922 172.789C266.849 172.872 266.812 172.992 266.812 173.148V182.18C266.812 182.341 266.849 182.464 266.922 182.547C266.995 182.63 267.125 182.698 267.312 182.75V183H263.984V182.75C264.167 182.703 264.294 182.638 264.367 182.555C264.445 182.466 264.484 182.341 264.484 182.18V175.633L260.336 182.852ZM269.273 171.055C269.94 171.534 270.523 172.133 271.023 172.852C272.049 174.331 272.562 175.938 272.562 177.672C272.562 178.979 272.266 180.227 271.672 181.414C271.083 182.602 270.284 183.557 269.273 184.281L268.406 183.57C269 182.883 269.438 182.24 269.719 181.641C270.219 180.557 270.469 179.234 270.469 177.672C270.469 176.396 270.31 175.31 269.992 174.414C269.68 173.513 269.151 172.63 268.406 171.766L269.273 171.055ZM279.086 182.18V173.156C279.086 172.995 279.049 172.872 278.977 172.789C278.904 172.706 278.773 172.638 278.586 172.586V172.336H284.531C285.833 172.336 286.833 172.484 287.531 172.781C288.531 173.214 289.271 173.927 289.75 174.922C290.13 175.703 290.32 176.617 290.32 177.664C290.32 179.503 289.755 180.904 288.625 181.867C288.151 182.273 287.596 182.565 286.961 182.742C286.326 182.914 285.516 183 284.531 183H278.586V182.75C278.773 182.698 278.904 182.63 278.977 182.547C279.049 182.464 279.086 182.341 279.086 182.18ZM281.414 181.242H284.336C285.268 181.242 285.969 181.115 286.438 180.859C287.443 180.312 287.945 179.247 287.945 177.664C287.945 176.518 287.674 175.641 287.133 175.031C286.831 174.693 286.466 174.453 286.039 174.312C285.612 174.167 285.044 174.094 284.336 174.094H281.414V181.242ZM300.984 178.344H294.836V182.188C294.836 182.344 294.872 182.466 294.945 182.555C295.023 182.638 295.154 182.703 295.336 182.75V183H292.008V182.75C292.195 182.698 292.326 182.63 292.398 182.547C292.471 182.464 292.508 182.344 292.508 182.188V173.148C292.508 172.992 292.471 172.872 292.398 172.789C292.326 172.706 292.195 172.638 292.008 172.586V172.336H295.336V172.586C295.148 172.633 295.018 172.701 294.945 172.789C294.872 172.872 294.836 172.992 294.836 173.148V176.586H300.984V173.148C300.984 172.992 300.948 172.872 300.875 172.789C300.802 172.701 300.672 172.633 300.484 172.586V172.336H303.812V172.586C303.625 172.638 303.495 172.706 303.422 172.789C303.349 172.872 303.312 172.992 303.312 173.148V182.188C303.312 182.344 303.349 182.464 303.422 182.547C303.495 182.63 303.625 182.698 303.812 182.75V183H300.484V182.75C300.667 182.703 300.794 182.638 300.867 182.555C300.945 182.466 300.984 182.344 300.984 182.188V178.344ZM313.555 180.281H308.711L307.992 181.781C307.893 181.99 307.844 182.154 307.844 182.273C307.844 182.503 308.018 182.661 308.367 182.75V183H304.836V182.75C305.044 182.708 305.203 182.635 305.312 182.531C305.422 182.427 305.547 182.224 305.688 181.922L309.609 173.727C309.734 173.466 309.797 173.258 309.797 173.102C309.797 172.862 309.646 172.69 309.344 172.586V172.336H313.125V172.586C312.818 172.674 312.664 172.828 312.664 173.047C312.664 173.198 312.714 173.37 312.812 173.562L316.875 181.781C317.047 182.13 317.198 182.37 317.328 182.5C317.458 182.625 317.633 182.708 317.852 182.75V183H313.93V182.75C314.273 182.693 314.445 182.531 314.445 182.266C314.445 182.156 314.393 181.995 314.289 181.781L313.555 180.281ZM312.883 178.82L311.156 175.023L309.406 178.82H312.883ZM321.391 175.695V182.18C321.391 182.341 321.427 182.464 321.5 182.547C321.573 182.63 321.703 182.698 321.891 182.75V183H318.758V182.75C318.945 182.698 319.076 182.63 319.148 182.547C319.221 182.464 319.258 182.341 319.258 182.18V173.148C319.258 172.992 319.221 172.872 319.148 172.789C319.076 172.706 318.945 172.638 318.758 172.586V172.336H322.383V172.586C322.159 172.643 322.047 172.763 322.047 172.945C322.047 173.07 322.12 173.208 322.266 173.359L328.148 179.477V173.148C328.148 172.992 328.112 172.872 328.039 172.789C327.966 172.706 327.836 172.638 327.648 172.586V172.336H330.781V172.586C330.594 172.638 330.464 172.706 330.391 172.789C330.318 172.872 330.281 172.992 330.281 173.148V182.18C330.281 182.341 330.318 182.464 330.391 182.547C330.464 182.63 330.594 182.698 330.781 182.75V183H327.422V182.75C327.641 182.703 327.75 182.591 327.75 182.414C327.75 182.31 327.622 182.128 327.367 181.867L321.391 175.695ZM342.211 177.414C343.409 177.867 344.008 178.706 344.008 179.93C344.008 180.904 343.659 181.667 342.961 182.219C342.607 182.495 342.195 182.695 341.727 182.82C341.263 182.94 340.688 183 340 183H332.711V182.75C332.898 182.698 333.029 182.63 333.102 182.547C333.174 182.464 333.211 182.341 333.211 182.18V173.156C333.211 172.995 333.174 172.872 333.102 172.789C333.029 172.706 332.898 172.638 332.711 172.586V172.336H339.93C340.622 172.336 341.18 172.388 341.602 172.492C342.023 172.596 342.393 172.773 342.711 173.023C343.341 173.518 343.656 174.232 343.656 175.164C343.656 176.206 343.174 176.956 342.211 177.414ZM335.539 176.578H339.625C340.245 176.578 340.677 176.487 340.922 176.305C341.198 176.096 341.336 175.773 341.336 175.336C341.336 174.888 341.206 174.57 340.945 174.383C340.685 174.19 340.245 174.094 339.625 174.094H335.539V176.578ZM335.539 181.242H339.492C340.227 181.242 340.755 181.141 341.078 180.938C341.448 180.703 341.633 180.32 341.633 179.789C341.633 179.263 341.448 178.88 341.078 178.641C340.76 178.438 340.232 178.336 339.492 178.336H335.539V181.242ZM353.086 180.281H348.242L347.523 181.781C347.424 181.99 347.375 182.154 347.375 182.273C347.375 182.503 347.549 182.661 347.898 182.75V183H344.367V182.75C344.576 182.708 344.734 182.635 344.844 182.531C344.953 182.427 345.078 182.224 345.219 181.922L349.141 173.727C349.266 173.466 349.328 173.258 349.328 173.102C349.328 172.862 349.177 172.69 348.875 172.586V172.336H352.656V172.586C352.349 172.674 352.195 172.828 352.195 173.047C352.195 173.198 352.245 173.37 352.344 173.562L356.406 181.781C356.578 182.13 356.729 182.37 356.859 182.5C356.99 182.625 357.164 182.708 357.383 182.75V183H353.461V182.75C353.805 182.693 353.977 182.531 353.977 182.266C353.977 182.156 353.924 181.995 353.82 181.781L353.086 180.281ZM352.414 178.82L350.688 175.023L348.938 178.82H352.414ZM358.789 182.18V173.156C358.789 172.995 358.753 172.872 358.68 172.789C358.607 172.706 358.477 172.638 358.289 172.586V172.336H364.234C365.536 172.336 366.536 172.484 367.234 172.781C368.234 173.214 368.974 173.927 369.453 174.922C369.833 175.703 370.023 176.617 370.023 177.664C370.023 179.503 369.458 180.904 368.328 181.867C367.854 182.273 367.299 182.565 366.664 182.742C366.029 182.914 365.219 183 364.234 183H358.289V182.75C358.477 182.698 358.607 182.63 358.68 182.547C358.753 182.464 358.789 182.341 358.789 182.18ZM361.117 181.242H364.039C364.971 181.242 365.672 181.115 366.141 180.859C367.146 180.312 367.648 179.247 367.648 177.664C367.648 176.518 367.378 175.641 366.836 175.031C366.534 174.693 366.169 174.453 365.742 174.312C365.315 174.167 364.747 174.094 364.039 174.094H361.117V181.242Z" fill="white"/>
</svg>
