<svg width="2032" height="2725" viewBox="0 0 2032 2725" fill="none" xmlns="http://www.w3.org/2000/svg">
<path d="M948.044 984.756C970.14 1007.97 986.32 1042.14 1000.8 1070.71C958.837 1079.19 917.342 1089.54 876.308 1101.74L832.105 1113.36L832.09 1066.93C867.988 1036.2 911.059 1014.17 948.044 984.756Z" fill="#EB2E07"/>
<path d="M1590.48 802.783C1621.64 787.458 1652.22 768.279 1681.61 749.742C1695.91 740.721 1710.79 729.134 1726.08 722.241C1721.76 737.047 1656.25 758.915 1661.93 771.141C1665.97 779.852 1679.45 783.749 1686.72 789.676C1705.94 805.352 1730.38 829.024 1737.73 853.022C1745.8 858.946 1741.99 864.052 1748.96 863.069L1748.29 863.534C1765.3 853.904 1803.59 821.645 1817.62 818.146L1818.9 819.291C1808.46 831.742 1685.84 906.945 1664.59 916.71C1648.57 898.306 1637.28 874.355 1624.79 853.411C1614.31 835.83 1602.62 819.244 1590.48 802.783Z" fill="#EB2E07"/>
<path d="M276.533 1931.38C327.741 1957.1 396.184 1968.26 451.605 1949.28C463.384 1945.24 477.244 1936.32 489.779 1938.01C480.787 1976.46 474.695 2015.54 465.451 2053.92C441.837 2055.12 418.529 2056.43 395.012 2052.99C344.163 2045.55 294.461 2012.68 263.938 1971.81C267.558 1958.08 271.592 1944.69 276.533 1931.38Z" fill="#1D3859"/>
<path d="M263.084 1700.48C277.36 1685.73 291.901 1669.99 307.742 1656.95C330.081 1711.64 353.011 1766.6 373.185 1822.11C346.348 1844.01 292.63 1890.27 275.653 1918.23C266.954 1932.56 261.961 1948.7 257.015 1964.6C232.788 1927.58 215.196 1879.67 215.736 1834.89C220.497 1790.98 221.802 1769.2 244.297 1728.6C249.345 1719.49 256.84 1711.92 261.8 1702.85L263.084 1700.48Z" fill="#2C4A6E"/>
<path d="M1007.21 1092.7L1009.77 1092.78C1019.62 1102 1038.64 1154.73 1043.6 1169.46C1027.15 1185.31 1011.91 1202.81 996.353 1219.55C931.365 1233.46 867.43 1251.18 804.549 1272.69C794.376 1276.85 783.842 1280.03 773.387 1283.39C790.709 1234.05 815.902 1189.07 830.574 1138.5C852.539 1129.68 876.641 1124.69 899.589 1118.93C935.42 1110 971.295 1101.26 1007.21 1092.7Z" fill="#F95F08"/>
<path d="M585.395 1675.3C612.304 1699.4 627.368 1729.05 643.925 1760.58C646.427 1765.91 648.13 1770.97 648.878 1776.85C647.771 1790.39 652.981 1808.72 654.527 1822.61C660.802 1879.02 651.98 1931.12 617.591 1977.63C578.807 2030.09 534.058 2044.09 472.362 2053.53C484.708 2000.13 495.289 1946.13 507.199 1892.59C521.543 1882.74 536.445 1873.71 550.884 1863.99C568.992 1851.78 586.48 1838.72 605.033 1827.18C601.729 1776.73 593.404 1725.24 585.395 1675.3Z" fill="#1D3859"/>
<path d="M1438 1258.75C1513.44 1376.19 1539.58 1537.97 1509.79 1674.2C1508.74 1678.98 1507.64 1683.75 1506.47 1688.5C1505.31 1693.25 1504.08 1697.99 1502.8 1702.71C1501.52 1707.43 1500.18 1712.14 1498.78 1716.83C1497.39 1721.52 1495.93 1726.19 1494.42 1730.85C1492.91 1735.5 1491.35 1740.14 1489.72 1744.75C1488.1 1749.37 1486.42 1753.96 1484.68 1758.54C1482.95 1763.11 1481.16 1767.67 1479.31 1772.2C1477.46 1776.73 1475.56 1781.24 1473.6 1785.72C1471.64 1790.21 1469.63 1794.67 1467.56 1799.1C1465.5 1803.54 1463.38 1807.95 1461.2 1812.33C1459.03 1816.71 1456.8 1821.07 1454.52 1825.4C1452.24 1829.73 1449.9 1834.03 1447.52 1838.3C1445.13 1842.57 1442.7 1846.82 1440.21 1851.03C1437.72 1855.24 1435.18 1859.42 1432.59 1863.57C1429.99 1867.72 1427.35 1871.84 1424.66 1875.93C1421.97 1880.01 1419.23 1884.06 1416.43 1888.08C1413.64 1892.1 1410.8 1896.09 1407.91 1900.04C1405.02 1903.99 1402.09 1907.9 1399.1 1911.77C1396.12 1915.65 1393.09 1919.49 1390.01 1923.3C1386.93 1927.1 1383.81 1930.87 1380.64 1934.59C1377.46 1938.32 1374.25 1942.01 1370.99 1945.66C1367.73 1949.3 1364.42 1952.91 1361.07 1956.48C1357.73 1960.05 1354.33 1963.57 1350.9 1967.06C1347.46 1970.55 1343.99 1973.99 1340.47 1977.39C1336.95 1980.79 1333.39 1984.14 1329.79 1987.46C1326.19 1990.77 1322.54 1994.04 1318.87 1997.26C1315.19 2000.48 1311.47 2003.66 1307.71 2006.8C1303.95 2009.93 1300.15 2013.02 1296.32 2016.06C1292.48 2019.1 1288.61 2022.09 1284.71 2025.04C1280.8 2027.98 1276.86 2030.88 1272.88 2033.73C1268.9 2036.58 1264.89 2039.38 1260.84 2042.13C1256.8 2044.88 1252.72 2047.58 1248.6 2050.23C1244.72 2052.7 1240.79 2055.08 1236.81 2057.37C1225.55 2057.69 1214.3 2058.22 1203.06 2058.97C1197.77 2064.27 1193.9 2070.29 1189.81 2076.51C1177.58 2068.94 1164.01 2064.84 1150.46 2060.36C1154.8 2058.39 1159.1 2056.37 1163.38 2054.3C1167.66 2052.23 1171.92 2050.11 1176.15 2047.93C1180.38 2045.75 1184.58 2043.52 1188.75 2041.24C1192.93 2038.96 1197.07 2036.62 1201.18 2034.24C1205.3 2031.85 1209.38 2029.41 1213.44 2026.92C1217.49 2024.44 1221.51 2021.9 1225.5 2019.31C1229.49 2016.72 1233.45 2014.09 1237.38 2011.4C1241.3 2008.71 1245.19 2005.97 1249.04 2003.19C1252.9 2000.4 1256.72 1997.57 1260.51 1994.69C1264.29 1991.81 1268.04 1988.89 1271.75 1985.91C1275.47 1982.94 1279.14 1979.92 1282.78 1976.85C1286.41 1973.79 1290.01 1970.68 1293.57 1967.52C1297.13 1964.37 1300.65 1961.17 1304.13 1957.92C1307.61 1954.68 1311.05 1951.4 1314.44 1948.07C1317.84 1944.74 1321.2 1941.37 1324.51 1937.95C1327.82 1934.54 1331.09 1931.09 1334.32 1927.59C1337.55 1924.1 1340.73 1920.57 1343.87 1916.99C1347.01 1913.42 1350.1 1909.8 1353.15 1906.15C1356.2 1902.5 1359.2 1898.82 1362.16 1895.09C1365.11 1891.36 1368.02 1887.6 1370.88 1883.8C1373.75 1880 1376.56 1876.17 1379.33 1872.3C1382.1 1868.43 1384.81 1864.53 1387.48 1860.59C1390.15 1856.66 1392.77 1852.68 1395.34 1848.68C1397.91 1844.68 1400.43 1840.65 1402.9 1836.58C1405.37 1832.52 1407.79 1828.42 1410.16 1824.3C1412.52 1820.17 1414.84 1816.02 1417.1 1811.83C1419.37 1807.65 1421.58 1803.44 1423.73 1799.2C1425.89 1794.96 1428 1790.69 1430.05 1786.4C1432.1 1782.11 1434.1 1777.8 1436.04 1773.45C1437.99 1769.11 1439.88 1764.75 1441.71 1760.36C1443.54 1755.97 1445.32 1751.56 1447.05 1747.13C1448.77 1742.7 1450.44 1738.24 1452.06 1733.77C1504.18 1591.76 1487.21 1444.66 1424.55 1309.5L1438 1258.75Z" fill="#0A1A35"/>
<path d="M650.166 2428.74C686.087 2431.51 724.031 2431.77 760.049 2430.53C740.952 2443.33 717.904 2451.72 696.912 2461.06C654.47 2480.21 611.705 2498.61 568.622 2516.26L154.618 2687.94L70 2724.06C100.884 2700.8 130.589 2675.61 160.75 2651.4C234.828 2590.89 309.736 2531.44 385.477 2473.02C427.105 2471.71 468.929 2472.56 510.582 2472.58C529.5 2472.59 548.797 2473.34 567.648 2471.83C569.633 2471.67 571.613 2471.45 573.587 2471.19C575.561 2470.93 577.529 2470.61 579.488 2470.25C581.446 2469.89 583.395 2469.48 585.334 2469.02C587.274 2468.56 589.2 2468.06 591.114 2467.5C593.026 2466.95 594.924 2466.35 596.806 2465.7C598.692 2465.05 600.558 2464.35 602.406 2463.61C604.255 2462.87 606.085 2462.08 607.892 2461.25C609.703 2460.41 611.49 2459.54 613.254 2458.61C615.021 2457.69 616.762 2456.73 618.479 2455.72C620.198 2454.71 621.89 2453.66 623.554 2452.56C625.219 2451.47 626.857 2450.34 628.464 2449.16C630.073 2447.98 631.652 2446.77 633.2 2445.52C634.748 2444.26 636.264 2442.97 637.749 2441.64C639.233 2440.31 640.683 2438.95 642.098 2437.55C643.516 2436.15 644.895 2434.71 646.239 2433.24C647.589 2431.77 648.896 2430.27 650.166 2428.74Z" fill="#0A1A35"/>
<path d="M215.739 1834.89C210.326 1816.73 212.041 1795.83 212.932 1777.08C215.826 1716.19 224.769 1656.75 245.003 1599.08C311.519 1409.51 471.536 1282.55 646.898 1198.18C645.851 1240.75 644.277 1283.22 646.049 1325.8C510.862 1386.3 385.64 1470.76 309.718 1601.36C291.426 1632.83 279.672 1668.03 263.083 1700.48L261.801 1702.85C256.84 1711.92 249.347 1719.49 244.299 1728.6C221.805 1769.2 220.5 1790.98 215.739 1834.89Z" fill="#F95F08"/>
<path d="M1963.08 341.168C2003.21 412.851 2048.96 508.807 2025.71 592.175C2005.35 665.136 1935.2 726.661 1878.74 773.89C1860.22 789.386 1840.83 806.529 1819.96 818.711C1819.61 818.913 1819.26 819.097 1818.9 819.29L1817.62 818.146C1803.59 821.643 1765.3 853.902 1748.29 863.534L1748.96 863.069C1741.99 864.052 1745.8 858.945 1737.73 853.022C1730.38 829.024 1705.94 805.352 1686.72 789.676C1679.45 783.749 1665.97 779.852 1661.93 771.141C1656.25 758.913 1721.76 737.046 1726.08 722.241C1814.07 655.998 1964.71 579.256 1981.11 458.285C1986.74 416.798 1975.67 380.161 1963.08 341.168Z" fill="#D01105"/>
<path d="M1532.88 1003.81C1570.13 977.539 1594.98 945.411 1613.32 903.899C1638.1 941.767 1667.73 976.365 1691.64 1015.03C1707.72 1041.02 1724.41 1073.32 1732.17 1102.94C1755.48 1191.94 1728.07 1298.5 1707.04 1385.42C1706.85 1385.93 1706.65 1386.43 1706.46 1386.95C1689.85 1432.74 1689.32 1528.69 1640.65 1552.58C1632.02 1556.82 1582.04 1568.02 1574.96 1565.71C1572.67 1564.97 1571.79 1563.28 1570.27 1561.54C1571.6 1538.67 1639.5 1486.72 1628.02 1459.49C1624.44 1458.93 1623.56 1459.08 1620.39 1460.98C1605.94 1469.62 1606.96 1506.11 1583.25 1510.81C1579.77 1509.06 1579.26 1508.46 1578.01 1504.46C1576.72 1500.31 1577.9 1494.15 1578.95 1490.07C1581.83 1478.78 1587.4 1468.31 1590.56 1457.14C1594.16 1444.45 1594.57 1430.92 1598.72 1418.4C1599.69 1415.43 1600.87 1412.54 1602.25 1409.74C1603.64 1406.94 1605.22 1404.25 1607 1401.67C1610.53 1396.65 1614.79 1392.5 1619.3 1388.37C1627.35 1384.98 1634.83 1380.13 1642.35 1375.72C1667.44 1302.11 1604.22 1191.41 1627.78 1108.19C1598.68 1070.77 1566.36 1037.27 1532.88 1003.81Z" fill="#0A1A35"/>
<path d="M216.455 1949.95C216.557 1949.05 216.696 1948.15 216.76 1947.25C217.639 1935.27 200.206 1879.83 196.468 1863.51C191.851 1842.91 187.954 1822.17 184.773 1801.3C172.153 1721.33 169.611 1634.55 186.373 1555C212.717 1429.97 290.009 1315.9 381.056 1228.51C457.926 1154.72 584.795 1073.74 683.789 1035.37C667.608 1079.1 650.701 1126.71 648.711 1173.83C594.653 1201 542.108 1228.1 491.982 1262.41C374.606 1342.75 279.454 1458.42 234.338 1594.12C203.3 1687.48 199.052 1781.66 211.934 1878.52C215.56 1905.8 219.7 1934.5 227.999 1960.77C236.588 1987.94 251.107 2016.29 264.161 2041.73C270.796 2054.66 296.835 2090.71 299.16 2099.89C288.301 2089.4 274.942 2071.79 266.415 2059.14L267.116 2053.6C263.26 2044.93 256.663 2027.99 249.327 2022.45C241.249 2003.81 229.867 1986.06 219.736 1968.45C219.804 1962.3 217.299 1956.13 216.455 1949.95Z" fill="#F95F08"/>
<path d="M313.934 1652.47C368.519 1619.39 421.009 1605.27 484.182 1621.02C516.095 1628.97 549.644 1643.63 574.917 1665.06C587.478 1715.76 587.082 1770.2 596.616 1821.73C565.245 1844.29 531.727 1864.61 501.124 1888.07C496.127 1904.45 492.962 1921.2 489.778 1938.01C477.245 1936.31 463.383 1945.24 451.604 1949.28C396.184 1968.26 327.74 1957.1 276.532 1931.38C297.361 1892.13 350.836 1856.62 382.164 1823.31C373.209 1793.19 359.717 1763.89 348.194 1734.65C337.542 1707.62 328.385 1677.72 313.934 1652.47Z" fill="#2C4A6E"/>
<path d="M1799.67 206.49C1811.46 210.964 1824.02 223.132 1833.85 231.257C1873.48 264.008 1913.86 297.58 1940.4 342.348C1963.82 381.846 1972.21 425.652 1960.2 470.495C1928.41 589.277 1680.06 727.266 1576.24 787.219C1568.65 779.538 1560.81 772.226 1552.81 764.978C1520.87 736.104 1485.27 717.003 1447.39 697.321C1472.97 683.504 1499.85 671.624 1526.03 658.967C1595.74 625.276 1666.57 592.292 1733.45 553.248C1758.13 538.838 1783.28 524.547 1805.72 506.755C1843.35 476.924 1875.36 437.293 1880.54 387.967C1888.28 314.284 1843.02 260.198 1799.67 206.49Z" fill="#EB2E07"/>
<path d="M219.735 1968.45C203.145 1938.97 190.889 1908.78 179.519 1877.02C114.166 1694.46 109.225 1502.5 193.318 1325.43C200.019 1311.25 207.233 1297.33 214.959 1283.69C222.687 1270.04 230.906 1256.7 239.617 1243.65C248.328 1230.61 257.506 1217.91 267.152 1205.54C276.8 1193.18 286.89 1181.19 297.422 1169.57C423.908 1029.43 616.813 927.096 792.869 864.473C754.263 909.539 715.385 960.472 687.635 1012.99C501.277 1091.17 325.719 1215.77 229.147 1397.57C148.121 1550.1 151.802 1714.87 194.264 1878.39C200.539 1902.56 209.144 1926.07 216.455 1949.95C217.299 1956.13 219.804 1962.3 219.735 1968.45Z" fill="url(#paint0_linear_4016_88)"/>
<path d="M1576.42 90C1576.92 90.2088 1577.43 90.3711 1577.9 90.625C1612.09 109.128 1645.88 130.687 1678.95 151.19C1748.86 194.535 1823.7 236.831 1853.83 318.669C1866.48 353.027 1866.79 390.906 1850.92 424.272C1836.94 453.654 1810.28 478.025 1784.5 497.08C1743.72 527.216 1698.14 548.836 1653.12 571.618C1607.38 594.76 1561.73 617.813 1515.52 640.015C1484.57 654.882 1452.83 673.393 1420.57 684.85L1400.17 680.872C1373.12 674.478 1328.31 663.41 1306.47 646.914C1292.2 636.139 1289.24 624.835 1286.66 608.16C1352.66 585.572 1417.03 558.202 1481.65 532.001C1541.75 507.629 1603.99 484.855 1660.75 453.194C1682.51 441.062 1703.91 426.494 1721.8 409.082C1740.97 390.431 1756.37 365.995 1756.06 338.356C1755.29 268.401 1625.26 139.399 1576.42 90Z" fill="#F95F08"/>
<path d="M1022.97 662.495C1027.24 672.702 1032.63 682.592 1037.57 692.5C991.149 713.743 932.19 718.318 890.709 748.956C876.309 759.59 863.398 773.861 851.834 787.428C842.572 798.297 827.419 823.572 815.487 829.9C796.678 839.877 774.422 846.075 754.4 853.576C728.538 863.266 703.088 874.187 677.675 884.994C551.152 938.79 415.66 1017.49 317.321 1114.78C189.779 1240.95 111.877 1403.15 110.9 1583.8C110.193 1713.98 149.706 1838 208.285 1953.15C218.695 1973.61 233.442 2006.4 249.324 2022.45C256.66 2027.99 263.257 2044.92 267.113 2053.59L266.412 2059.14C215.346 2000.37 155.78 1891.26 130.287 1818.03C113.014 1768.42 97.7695 1717.53 88.5345 1665.76C87.7172 1661.2 86.945 1656.63 86.2178 1652.05C85.4922 1647.47 84.8101 1642.88 84.1731 1638.29C83.5376 1633.7 82.9442 1629.11 82.3958 1624.5C81.8489 1619.9 81.3471 1615.29 80.8904 1610.68C80.4337 1606.06 80.022 1601.45 79.6554 1596.83C79.2904 1592.21 78.9689 1587.58 78.6924 1582.95C78.416 1578.33 78.1846 1573.7 77.9998 1569.07C77.8151 1564.44 77.6753 1559.8 77.5822 1555.17C77.486 1550.53 77.4365 1545.9 77.432 1541.26C77.4275 1536.63 77.4695 1531.99 77.5567 1527.36C77.6438 1522.73 77.7775 1518.09 77.9563 1513.46C78.1336 1508.83 78.356 1504.2 78.6234 1499.57C78.8923 1494.95 79.2047 1490.32 79.5653 1485.7C79.9244 1481.08 80.3285 1476.46 80.7777 1471.85C81.2269 1467.23 81.7213 1462.62 82.2621 1458.02C82.803 1453.42 83.3858 1448.82 84.0138 1444.23C84.6433 1439.64 85.3194 1435.05 86.0405 1430.47C86.7601 1425.89 87.5234 1421.32 88.3316 1416.75C89.1399 1412.19 89.9932 1407.63 90.8916 1403.09C91.7916 1398.54 92.7351 1394 93.7191 1389.47C94.7062 1384.94 95.7383 1380.43 96.8155 1375.92C97.8897 1371.41 99.009 1366.91 100.173 1362.42C101.338 1357.94 102.544 1353.46 103.795 1349C105.047 1344.53 106.342 1340.08 107.681 1335.65C109.019 1331.21 110.401 1326.79 111.827 1322.37C113.253 1317.96 114.721 1313.57 116.232 1309.18C117.743 1304.8 119.297 1300.44 120.892 1296.08C122.489 1291.73 124.127 1287.4 125.81 1283.08C127.491 1278.76 129.215 1274.45 130.982 1270.17C132.749 1265.89 134.556 1261.62 136.404 1257.37C138.254 1253.12 140.145 1248.88 142.079 1244.67C144.012 1240.46 145.985 1236.26 148 1232.09C239.402 1043.15 407.009 922.457 589.523 829.598C663.182 792.12 737.28 759.088 814.877 730.586C883.51 705.372 954.036 686.445 1022.97 662.495Z" fill="#FC960A"/>
<path d="M1488.41 1008.18C1513.98 1031.22 1538.68 1055.35 1563.44 1079.26C1575.47 1090.87 1589.63 1102.47 1600.26 1115.32C1602.29 1139.16 1605.24 1162.88 1609.1 1186.49C1615.82 1225.97 1640.07 1327.24 1633.75 1360.88C1631.82 1371.13 1624.03 1379.33 1619.29 1388.37C1614.79 1392.5 1610.53 1396.65 1606.99 1401.67C1605.22 1404.25 1603.64 1406.93 1602.25 1409.74C1600.87 1412.54 1599.69 1415.43 1598.72 1418.4C1594.57 1430.92 1594.16 1444.45 1590.56 1457.14C1587.39 1468.31 1581.83 1478.78 1578.94 1490.07C1577.9 1494.15 1576.72 1500.31 1578.01 1504.46C1579.26 1508.46 1579.76 1509.06 1583.25 1510.81C1606.96 1506.11 1605.94 1469.62 1620.38 1460.98C1623.56 1459.08 1624.44 1458.93 1628.02 1459.49C1639.5 1486.72 1571.6 1538.67 1570.27 1561.54C1571.79 1563.28 1572.67 1564.97 1574.96 1565.71C1582.04 1568.02 1632.02 1556.82 1640.65 1552.58C1689.32 1528.69 1689.85 1432.74 1706.46 1386.95C1706.64 1386.43 1706.84 1385.93 1707.04 1385.42C1715.33 1372.91 1720.18 1354.46 1725.23 1340.24C1749.65 1271.46 1775.57 1169.3 1760.76 1097.41C1755.47 1071.7 1741.92 1047.24 1729.76 1024.18C1802.36 1108.49 1851.42 1243.38 1865.84 1352.91C1871.86 1398.57 1872.2 1445.51 1868.73 1491.4C1853.07 1698.12 1755.73 1867.23 1599.99 2000.67C1573.54 2023.33 1517.37 2066.97 1485.6 2079.37C1407.77 2044.23 1319.71 2060.29 1236.81 2057.37C1240.79 2055.07 1244.72 2052.69 1248.6 2050.23C1252.72 2047.58 1256.79 2044.88 1260.84 2042.13C1264.89 2039.38 1268.9 2036.58 1272.88 2033.73C1276.85 2030.88 1280.8 2027.98 1284.7 2025.03C1288.61 2022.09 1292.48 2019.09 1296.31 2016.05C1300.15 2013.01 1303.94 2009.93 1307.7 2006.79C1311.46 2003.66 1315.18 2000.48 1318.86 1997.26C1322.54 1994.03 1326.18 1990.77 1329.78 1987.45C1333.39 1984.14 1336.95 1980.78 1340.47 1977.38C1343.99 1973.98 1347.46 1970.54 1350.89 1967.06C1354.33 1963.57 1357.72 1960.04 1361.07 1956.48C1364.42 1952.91 1367.72 1949.3 1370.99 1945.65C1374.24 1942 1377.46 1938.32 1380.63 1934.59C1383.8 1930.86 1386.93 1927.1 1390 1923.29C1393.08 1919.49 1396.11 1915.65 1399.1 1911.77C1402.08 1907.89 1405.02 1903.98 1407.91 1900.03C1410.8 1896.08 1413.64 1892.1 1416.43 1888.08C1419.22 1884.06 1421.96 1880.01 1424.65 1875.92C1427.35 1871.84 1429.99 1867.72 1432.58 1863.57C1435.17 1859.42 1437.71 1855.24 1440.2 1851.02C1442.69 1846.81 1445.13 1842.57 1447.52 1838.3C1449.9 1834.02 1452.24 1829.72 1454.52 1825.4C1456.8 1821.07 1459.03 1816.71 1461.2 1812.33C1463.37 1807.94 1465.49 1803.53 1467.56 1799.1C1469.63 1794.66 1471.64 1790.2 1473.6 1785.72C1475.55 1781.23 1477.46 1776.73 1479.31 1772.19C1481.15 1767.66 1482.94 1763.11 1484.68 1758.54C1486.42 1753.96 1488.1 1749.36 1489.72 1744.75C1491.35 1740.13 1492.91 1735.5 1494.42 1730.84C1495.93 1726.19 1497.39 1721.52 1498.78 1716.83C1500.18 1712.14 1501.52 1707.43 1502.8 1702.71C1504.08 1697.99 1505.3 1693.25 1506.47 1688.5C1507.63 1683.74 1508.74 1678.98 1509.79 1674.2C1539.57 1537.96 1513.44 1376.19 1438 1258.75C1445.61 1240.4 1449.77 1219.7 1454.23 1200.38C1463.63 1160.18 1471.53 1119.69 1477.92 1078.9C1481.78 1055.62 1486.69 1031.71 1488.41 1008.18Z" fill="url(#paint1_linear_4016_88)"/>
<path d="M981.7 446.921C983.587 443.548 985.56 440.225 987.618 436.954C989.678 433.682 991.82 430.467 994.044 427.305C996.267 424.141 998.57 421.038 1000.95 417.995C1003.34 414.952 1005.8 411.972 1008.33 409.056C1010.87 406.138 1013.48 403.286 1016.16 400.504C1018.84 397.723 1021.6 395.011 1024.42 392.37C1027.24 389.729 1030.13 387.162 1033.08 384.669C1036.04 382.177 1039.06 379.762 1042.13 377.423C1074.39 353.307 1119.71 336.26 1160.37 342.567C1195.4 348.001 1222.28 370.913 1242.63 398.826C1266.81 431.977 1282.72 480.591 1269.71 521.049C1262.42 543.687 1251.02 566.612 1249.43 590.589C1248.13 610.188 1254.44 630.178 1254.9 649.85C1255.75 686.748 1247.61 724.647 1241.86 761.009C1257.32 725.963 1267.62 687.786 1282.01 652.045C1307.12 667.593 1334.81 677.844 1361.58 690.118C1457.41 734.053 1557.29 783.998 1602.1 886.072C1586.39 930.271 1556.63 962.795 1523.67 994.727C1504.75 977.051 1488.04 957.44 1468.37 940.432C1460.17 988.155 1454.57 1036.32 1446.25 1084.07C1433.43 1157.63 1415.81 1232.12 1394.89 1303.81C1385.52 1335.9 1376.35 1370.01 1362.53 1400.45L1362.06 1405.14C1344.47 1452.85 1313.86 1521.13 1287.17 1564.01C1286.2 1561.22 1285.19 1558.43 1284.14 1555.66C1283.1 1552.89 1282.02 1550.13 1280.91 1547.38C1279.8 1544.64 1278.66 1541.91 1277.48 1539.19C1276.3 1536.47 1275.09 1533.76 1273.85 1531.08C1272.6 1528.39 1271.33 1525.71 1270.02 1523.06C1268.71 1520.4 1267.37 1517.76 1266 1515.14C1264.62 1512.51 1263.22 1509.9 1261.78 1507.31C1260.34 1504.72 1258.87 1502.15 1257.37 1499.6C1255.87 1497.04 1254.35 1494.51 1252.78 1491.99C1251.22 1489.47 1249.63 1486.97 1248.01 1484.5C1246.38 1482.02 1244.73 1479.56 1243.04 1477.12C1241.36 1474.69 1239.65 1472.27 1237.91 1469.87C1236.16 1467.48 1234.39 1465.1 1232.59 1462.75C1230.79 1460.4 1228.97 1458.07 1227.11 1455.76C1225.25 1453.45 1223.37 1451.17 1221.45 1448.91C1219.54 1446.65 1217.6 1444.41 1215.63 1442.19C1213.67 1439.98 1211.67 1437.79 1209.65 1435.63C1207.63 1433.46 1205.58 1431.32 1203.51 1429.21C1201.43 1427.09 1199.34 1425 1197.21 1422.94C1195.09 1420.87 1192.94 1418.83 1190.76 1416.82C1188.59 1414.81 1186.39 1412.83 1184.17 1410.87C1181.94 1408.91 1179.7 1406.98 1177.43 1405.08C1175.16 1403.18 1172.86 1401.3 1170.55 1399.45C1168.23 1397.61 1165.89 1395.79 1163.53 1394C1161.17 1392.21 1158.79 1390.45 1156.39 1388.72C1153.99 1386.99 1151.56 1385.28 1149.12 1383.61C1146.67 1381.94 1144.21 1380.3 1141.72 1378.69C1139.24 1377.08 1136.73 1375.49 1134.21 1373.94C1131.69 1372.39 1129.14 1370.87 1126.58 1369.39C1124.02 1367.9 1121.44 1366.44 1118.85 1365.02C1116.25 1363.59 1113.64 1362.2 1111.01 1360.83C1108.38 1359.47 1105.73 1358.14 1103.06 1356.85C1093.11 1351.96 1082.93 1347.61 1072.52 1343.79C1062.11 1339.97 1051.53 1336.72 1040.77 1334.01C1169.88 1390.88 1228.09 1460.25 1278.25 1589.61C1300.07 1645.86 1330.38 1735.7 1303.87 1793.7C1294.52 1814.16 1278.93 1826.45 1258.5 1834.83C1260.13 1826.52 1269.89 1790.52 1268.92 1786.26C1258.15 1800.68 1253.57 1824.83 1246.53 1841.78C1241.32 1854.32 1234.58 1866.42 1227.75 1878.13C1192.19 1939.2 1146.27 1995 1105.6 2052.83C1088.7 2053.29 1071.7 2053.35 1054.9 2055.29C1058.63 2003.94 1063.33 1919.36 1083.14 1872.38C1094.6 1845.18 1115.08 1818.89 1137.43 1799.78C1151.78 1787.51 1167.94 1780.17 1183.9 1770.54C1137.99 1778.39 1097.22 1796.73 1069.7 1835.86C1065.74 1841.42 1062.26 1847.26 1059.25 1853.38C1056.24 1859.5 1053.75 1865.82 1051.77 1872.35C1043.77 1898.91 1041.88 1928.13 1038.74 1955.64L1027.27 2059.99C989.844 2063.91 966.556 2082.74 939.152 2106.54C927.985 2098.49 917.337 2093.42 904.436 2088.7C941.262 2061.74 981.687 2041.42 1019.75 2016.62C1021.65 1988.48 1025.04 1960.35 1028.03 1932.3C1035.51 1861.91 1040.91 1822.15 1098.01 1772.54C1110.38 1761.79 1123.6 1752.88 1137.71 1744.58L1071.82 1727.99C1010.93 1779.48 898.81 1844.73 820.269 1855.78C793.903 1859.49 767.122 1860.08 740.612 1862.39C713.396 1864.75 686.485 1869.05 659.886 1875.28C660.556 1855.31 659.184 1835.88 658.05 1815.96C709.608 1796.66 765.92 1788.54 820.251 1798.59C765.535 1772.54 720.361 1771.24 661.522 1784.74C652.808 1786.73 651.886 1784.9 648.882 1776.84C648.134 1770.96 646.432 1765.91 643.929 1760.57C686.81 1748.17 728.506 1743.1 773.028 1747.37C793.569 1706.59 811.808 1691.65 851.625 1670.69C862.543 1664.94 874.06 1658.59 882.367 1649.24C895.751 1634.18 935.33 1539.24 942.628 1516.14C949.958 1537.42 957.599 1558.09 970.703 1576.62C1004.59 1624.55 1112.26 1714.44 1164.77 1736.28C1175.95 1740.93 1190.43 1741.79 1202.38 1743.82C1186.23 1729.4 1168.12 1716.89 1151.19 1703.37C1086.86 1651.98 1012.06 1594.2 971.196 1521.3C956.816 1495.65 946.691 1464.9 941.727 1435.97C930.219 1368.89 959.728 1304.22 1005.29 1255.91C1028.34 1231.46 1051.46 1213.07 1071.24 1185.31C1090.64 1192.12 1110.5 1197.93 1130.15 1204C1109.77 1190.27 1089.41 1178.94 1070.58 1162.71C1053.96 1109.97 1030.96 1056.02 1000.61 1009.64C986.518 988.111 969.552 967.329 953.975 946.794C936.922 960.927 922.979 978.29 906.387 992.884C876.254 1019.39 838.364 1041.28 813.298 1072.74C812.217 1100.01 812.42 1128.25 805.931 1154.88C797.192 1190.75 780.288 1221.62 766.02 1255.2C744.78 1305.17 737.07 1359.19 736.552 1413.16C765.855 1444.07 804.864 1465.05 832.415 1497.49L831.728 1502.28C812.747 1502.27 794.01 1486.88 774.156 1484.97C765.716 1484.16 757.567 1485.84 751.091 1491.56C741.801 1499.77 736.364 1515.95 736.005 1528.05C735.036 1560.97 776.684 1574.18 795.175 1594.65C797.904 1597.67 797.675 1597.57 797.516 1601.61L798.342 1598.89L796.319 1601.95C777.213 1602.06 744.511 1580.07 727.012 1571.07C737.133 1576.62 796.903 1590.3 797.516 1601.61L752 1608.5C749.5 1609 742.5 1607.81 742 1607.5C720.925 1594.56 690.337 1555.65 684.8 1530.78C679.908 1508.8 683.547 1454.09 682.274 1427.63C680.799 1397 676.385 1366.47 674.495 1335.83C668.627 1240.62 670.916 1125.71 710.872 1038.04C737.007 980.695 782.123 937.484 814.074 884.252L815.321 882.145C815.832 898.101 819.203 913.643 827.395 927.489C842.638 953.25 875.439 981.089 904.471 989.086L906.236 987.361C904.955 980.506 883.34 967.336 876.964 961.406C871.094 955.855 865.684 949.886 860.733 943.501C855.779 937.118 851.344 930.393 847.426 923.326C837.275 905.389 835.024 887.878 840.705 868.111C851.086 831.996 884.405 785.361 917.064 766.565C932.331 757.776 949.966 752.744 966.451 746.717C1005.45 732.465 1064.52 713.252 1099.43 693.523C1100 693.198 1100.57 692.858 1101.14 692.528C1111.75 702.373 1135.96 732.61 1146.34 738.209C1146.69 732.232 1146.06 726.253 1146.82 720.301C1151.07 687.056 1175.47 660.469 1192.6 633.048C1161.79 658.379 1120.2 691.334 1079.16 694.601C1063.4 695.857 1054.67 691.222 1043.3 681.28C1038.48 670.128 1038.84 657.874 1034.26 647C1031.02 639.287 1025.99 641.015 1024.62 631.041L1026.03 630.145C1029.25 630.114 1031.96 629.696 1035.14 629.203L1036.42 626.887C1032.93 618.092 1021.2 619.199 1014.08 615.015C1011.36 613.415 1011.29 612.518 1010.4 609.686C1012.89 598.914 1022.03 592.613 1030.04 585.804C1020.23 581.832 1002.56 580.539 995.575 572.635C994.748 555.007 1009.86 543.427 1013.44 527.116C1017.38 509.164 1008.06 490.726 1014.3 472.846C1019.16 458.939 1030.1 445.978 1038.93 434.379C1018.44 436.408 1000.99 439.444 981.7 446.921Z" fill="#0A1A35"/>
<path d="M1226.34 516.901C1228.36 519.923 1229.51 522.492 1229.89 526.096C1231.42 540.687 1223.6 556.708 1214.77 567.752L1213.73 567.923L1212.55 566.708C1221.78 551.342 1219.16 533.453 1226.34 516.901Z" fill="white"/>
<path d="M1095.41 702.243C1107.09 716.535 1115.47 733.732 1127.69 748.145C1151.85 776.637 1180.33 801.367 1205.46 829.033C1197.86 824.339 1190.5 819.221 1183.07 814.268C1144.57 787.827 1109.69 778.003 1063.75 774.374C1074.65 750.482 1085.2 726.438 1095.41 702.243Z" fill="white"/>
<path d="M989.379 968.925C1063.41 970.785 1137.36 969.237 1211.25 964.279C1263.64 961.112 1316.07 957.555 1368.02 949.81C1405.97 1062.55 1402.86 1189.15 1382.68 1305.07C1378.58 1328.63 1361.69 1382.36 1362.53 1400.46L1362.06 1405.15C1340.28 1406.09 1293.36 1387.23 1273.41 1376.88C1274.32 1368.88 1275.16 1360.88 1275.91 1352.86C1288.25 1216.4 1193.06 1093.6 1082.09 1025.92C1059.66 1012.25 1022.56 999.647 1004.42 985.371C998.766 980.923 993.99 974.443 989.379 968.925Z" fill="#F95F08"/>
<path d="M116.45 2107H189.35C213.95 2107 232.4 2113.6 244.7 2126.8C257 2140 263.15 2159.35 263.15 2184.85V2215.9C263.15 2241.4 257 2260.75 244.7 2273.95C232.4 2287.15 213.95 2293.75 189.35 2293.75H165.95V2422H116.45V2107ZM189.35 2248.75C197.45 2248.75 203.45 2246.5 207.35 2242C211.55 2237.5 213.65 2229.85 213.65 2219.05V2181.7C213.65 2170.9 211.55 2163.25 207.35 2158.75C203.45 2154.25 197.45 2152 189.35 2152H165.95V2248.75H189.35Z" fill="#FC5E0A"/>
<path d="M348.464 2107H415.514L466.814 2422H417.314L408.314 2359.45V2360.35H352.064L343.064 2422H297.164L348.464 2107ZM402.464 2317.6L380.414 2161.9H379.514L357.914 2317.6H402.464ZM526.829 2107H600.179C625.679 2107 644.279 2113 655.979 2125C667.679 2136.7 673.529 2154.85 673.529 2179.45V2198.8C673.529 2231.5 662.729 2252.2 641.129 2260.9V2261.8C653.129 2265.4 661.529 2272.75 666.329 2283.85C671.429 2294.95 673.979 2309.8 673.979 2328.4V2383.75C673.979 2392.75 674.279 2400.1 674.879 2405.8C675.479 2411.2 676.979 2416.6 679.379 2422H628.979C627.179 2416.9 625.979 2412.1 625.379 2407.6C624.779 2403.1 624.479 2395 624.479 2383.3V2325.7C624.479 2311.3 622.079 2301.25 617.279 2295.55C612.779 2289.85 604.829 2287 593.429 2287H576.329V2422H526.829V2107ZM594.329 2242C604.229 2242 611.579 2239.45 616.379 2234.35C621.479 2229.25 624.029 2220.7 624.029 2208.7V2184.4C624.029 2173 621.929 2164.75 617.729 2159.65C613.829 2154.55 607.529 2152 598.829 2152H576.329V2242H594.329ZM782.573 2107H849.623L900.923 2422H851.423L842.423 2359.45V2360.35H786.173L777.173 2422H731.273L782.573 2107ZM836.573 2317.6L814.523 2161.9H813.623L792.023 2317.6H836.573ZM960.938 2107H1010.44V2239.75L1073.44 2107H1122.94L1063.99 2222.65L1123.84 2422H1072.09L1030.24 2281.6L1010.44 2321.65V2422H960.938V2107ZM1183.27 2107H1256.62C1282.12 2107 1300.72 2113 1312.42 2125C1324.12 2136.7 1329.97 2154.85 1329.97 2179.45V2198.8C1329.97 2231.5 1319.17 2252.2 1297.57 2260.9V2261.8C1309.57 2265.4 1317.97 2272.75 1322.77 2283.85C1327.87 2294.95 1330.42 2309.8 1330.42 2328.4V2383.75C1330.42 2392.75 1330.72 2400.1 1331.32 2405.8C1331.92 2411.2 1333.42 2416.6 1335.82 2422H1285.42C1283.62 2416.9 1282.42 2412.1 1281.82 2407.6C1281.22 2403.1 1280.92 2395 1280.92 2383.3V2325.7C1280.92 2311.3 1278.52 2301.25 1273.72 2295.55C1269.22 2289.85 1261.27 2287 1249.87 2287H1232.77V2422H1183.27V2107ZM1250.77 2242C1260.67 2242 1268.02 2239.45 1272.82 2234.35C1277.92 2229.25 1280.47 2220.7 1280.47 2208.7V2184.4C1280.47 2173 1278.37 2164.75 1274.17 2159.65C1270.27 2154.55 1263.97 2152 1255.27 2152H1232.77V2242H1250.77ZM1439.01 2107H1506.06L1557.36 2422H1507.86L1498.86 2359.45V2360.35H1442.61L1433.61 2422H1387.71L1439.01 2107ZM1493.01 2317.6L1470.96 2161.9H1470.06L1448.46 2317.6H1493.01ZM1617.38 2107H1688.03L1719.53 2332.45H1720.43L1751.93 2107H1822.58V2422H1775.78V2183.5H1774.88L1738.88 2422H1697.48L1661.48 2183.5H1660.58V2422H1617.38V2107Z" fill="#0A1A35"/>
<path d="M305.714 843.35C283.215 843.57 263.981 840.158 248.012 833.113C231.742 826.072 213.767 813.347 194.086 794.939C174.408 776.83 157.636 764.393 143.769 757.628C129.899 750.564 115.465 747.104 100.466 747.251C86.9663 747.383 77.6887 749.724 72.6329 754.273C67.2742 758.526 64.6359 764.852 64.718 773.252C64.885 790.351 75.3181 798.799 96.0171 798.597L129.765 798.267L130.223 845.065L99.6242 845.364C74.1254 845.613 54.5648 839.504 40.9423 827.036C27.0199 814.572 19.9414 796.34 19.7069 772.341C19.4724 748.342 26.1933 729.976 39.8695 717.242C53.2458 704.51 72.6833 698.02 98.182 697.771C117.381 697.583 136.176 702.05 154.566 711.171C172.953 719.991 194.106 735.536 218.024 757.803C233.767 772.35 246.613 782.125 256.563 787.128C266.212 792.134 276.587 794.582 287.686 794.474L294.436 794.408L293.517 700.362L338.515 699.923L339.913 843.016L305.714 843.35ZM341.592 554.36C341.83 578.659 335.112 597.325 321.439 610.36C307.765 623.394 288.329 630.034 263.13 630.28L97.5384 631.898C72.3396 632.145 52.7775 625.885 38.8521 613.121C24.9267 600.356 17.8453 581.825 17.6079 557.526C17.3704 533.227 24.0884 514.56 37.7617 501.526C51.435 488.492 70.871 481.852 96.0698 481.606L261.662 479.987C286.861 479.741 306.423 486 320.348 498.765C334.274 511.529 341.355 530.061 341.592 554.36ZM296.595 554.8C296.427 537.701 285.994 529.252 265.295 529.454L93.4036 531.134C72.7046 531.336 62.4387 539.987 62.6057 557.086C62.7728 574.185 73.2059 582.634 93.9049 582.431L265.797 580.752C286.496 580.55 296.762 571.899 296.595 554.8Z" fill="#0A1A35"/>
<path d="M301.49 411.019C278.991 411.239 259.757 407.827 243.787 400.783C227.518 393.741 209.542 381.016 189.862 362.608C170.184 344.499 153.411 332.062 139.545 325.297C125.675 318.233 111.24 314.774 96.2412 314.92C82.7418 315.052 73.4642 317.393 68.4085 321.942C63.0497 326.195 60.4114 332.521 60.4935 340.921C60.6606 358.02 71.0936 366.468 91.7927 366.266L125.541 365.936L125.998 412.734L95.3998 413.033C69.901 413.282 50.3404 407.173 36.7179 394.706C22.7954 382.241 15.717 364.009 15.4825 340.01C15.248 316.012 21.9688 297.645 35.645 284.911C49.0213 272.179 68.4588 265.689 93.9576 265.44C113.157 265.252 131.951 269.719 150.341 278.84C168.728 287.661 189.881 303.205 213.8 325.472C229.543 340.019 242.389 349.794 252.338 354.797C261.988 359.803 272.362 362.252 283.462 362.143L290.211 362.077L289.292 268.032L334.29 267.592L335.688 410.685L301.49 411.019ZM337.359 121.129C337.594 145.128 331.023 163.493 317.647 176.224C303.97 188.959 284.383 195.45 258.884 195.699L234.135 195.941L233.678 149.144L262.027 148.867C282.426 148.667 292.542 140.018 292.375 122.919C292.207 105.82 281.924 97.3696 261.525 97.569L190.879 98.2593C170.18 98.4615 159.914 107.112 160.081 124.211C160.248 141.311 170.681 149.759 191.38 149.557L194.08 149.53L194.537 196.328L18.5076 189.048L17.2325 58.5541L62.2303 58.1144L63.0745 144.51L138.261 147.826L138.252 146.926C122.862 137.776 115.073 123.601 114.885 104.402C114.709 86.403 120.726 72.6935 132.934 63.2738C145.143 53.854 162.946 49.0299 186.345 48.8012L257.442 48.1065C282.941 47.8573 302.651 53.9651 316.574 66.4296C330.196 78.8971 337.125 97.1303 337.359 121.129Z" fill="#FC5E0A"/>
<path d="M949.2 40H971.2V180H949.2V40ZM1003.68 40H1025.68V180H1003.68V40ZM1075.35 60H1052.35V40H1120.35V60H1097.35V180H1075.35V60ZM1180.2 190C1169.14 190 1161.2 187.667 1156.4 183C1151.74 178.333 1149.4 170.467 1149.4 159.4V60.6C1149.4 49.5333 1151.74 41.6667 1156.4 37C1161.2 32.3333 1169.14 30 1180.2 30H1187V48H1181.6C1178 48 1175.4 48.9333 1173.8 50.8C1172.2 52.5333 1171.4 55.8 1171.4 60.6V159.4C1171.4 164.2 1172.2 167.533 1173.8 169.4C1175.4 171.133 1178 172 1181.6 172H1187V190H1180.2ZM1218.28 40H1240.28V180H1218.28V40ZM1301.35 182C1290.69 182 1282.62 179 1277.15 173C1271.69 166.867 1268.95 158.133 1268.95 146.8V138.8H1289.75V148.4C1289.75 157.467 1293.55 162 1301.15 162C1304.89 162 1307.69 160.933 1309.55 158.8C1311.55 156.533 1312.55 152.933 1312.55 148C1312.55 142.133 1311.22 137 1308.55 132.6C1305.89 128.067 1300.95 122.667 1293.75 116.4C1284.69 108.4 1278.35 101.2 1274.75 94.8C1271.15 88.2667 1269.35 80.9333 1269.35 72.8C1269.35 61.7333 1272.15 53.2 1277.75 47.2C1283.35 41.0667 1291.49 38 1302.15 38C1312.69 38 1320.62 41.0667 1325.95 47.2C1331.42 53.2 1334.15 61.8667 1334.15 73.2V79H1313.35V71.8C1313.35 67 1312.42 63.5333 1310.55 61.4C1308.69 59.1333 1305.95 58 1302.35 58C1295.02 58 1291.35 62.4667 1291.35 71.4C1291.35 76.4667 1292.69 81.2 1295.35 85.6C1298.15 90 1303.15 95.3333 1310.35 101.6C1319.55 109.6 1325.89 116.867 1329.35 123.4C1332.82 129.933 1334.55 137.6 1334.55 146.4C1334.55 157.867 1331.69 166.667 1325.95 172.8C1320.35 178.933 1312.15 182 1301.35 182ZM1363.17 40H1394.57L1408.57 140.2H1408.97L1422.97 40H1454.37V180H1433.57V74H1433.17L1417.17 180H1398.77L1382.77 74H1382.37V180H1363.17V40ZM1485.59 172H1490.99C1494.59 172 1497.19 171.133 1498.79 169.4C1500.39 167.533 1501.19 164.2 1501.19 159.4V60.6C1501.19 55.8 1500.39 52.5333 1498.79 50.8C1497.19 48.9333 1494.59 48 1490.99 48H1485.59V30H1492.39C1503.45 30 1511.32 32.3333 1515.99 37C1520.79 41.6667 1523.19 49.5333 1523.19 60.6V159.4C1523.19 170.467 1520.79 178.333 1515.99 183C1511.32 187.667 1503.45 190 1492.39 190H1485.59V172Z" fill="#0A1A35"/>
<path d="M950.5 1344C954.957 1344.39 1006 1328 1103.5 1366C1006 1305 972.5 1326.5 950.5 1344Z" fill="white"/>
<path d="M1263 1552.5C1268.5 1566.5 1273.5 1574.5 1283 1602C1257.5 1636 1179.5 1670.5 1129.5 1686C1129.5 1634.4 1002.5 1467.33 939.5 1390C940.5 1378 944.5 1358.5 950 1344C1060 1402.5 1160 1643.5 1263 1552.5Z" fill="#F95F08"/>
<path d="M864 1664C889 1648.5 889.5 1636.5 904.998 1608C958.998 1639.33 1051 1705 1071.5 1728C1037.5 1704.83 923.5 1636.5 864 1664Z" fill="#F95F08"/>
<path d="M864.134 1664C868.591 1664.39 931.5 1664 1029 1702C919 1642 875 1657.5 864.134 1664Z" fill="white"/>
<defs>
<linearGradient id="paint0_linear_4016_88" x1="658.289" y1="1663.76" x2="321.778" y2="1116.22" gradientUnits="userSpaceOnUse">
<stop stop-color="#FB5601"/>
<stop offset="1" stop-color="#FE9609"/>
</linearGradient>
<linearGradient id="paint1_linear_4016_88" x1="1764.31" y1="1843.64" x2="1224.44" y2="1261.82" gradientUnits="userSpaceOnUse">
<stop stop-color="#FC5A0A"/>
<stop offset="1" stop-color="#F9910A"/>
</linearGradient>
</defs>
</svg>
